<svg xmlns="http://www.w3.org/2000/svg" xmlns:xlink="http://www.w3.org/1999/xlink" xmlns:lucid="lucid" width="1196.89" height="438.72"><g transform="translate(-61.99999999996112 -362.8796296530241)" lucid:page-tab-id="0_0"><path d="M254 505.43a6 6 0 0 1 6-6h844.98a6 6 0 0 1 6 6v156a6 6 0 0 1-6 6H260a6 6 0 0 1-6-6z" fill="#fff"/><path d="M255 505.43c0 .56-.45 1-1 1s-1-.44-1-1c0-.55.45-1 1-1s1 .45 1 1zm1.45-3.88c0 .55-.45 1-1 1s-1-.45-1-1 .45-1 1-1 1 .45 1 1zm3.6-2.04c0 .56-.44 1-1 1-.54 0-1-.44-1-1 0-.55.46-1 1-1 .56 0 1 .45 1 1zm4.02 0c0 .56-.45 1-1 1s-1-.44-1-1c0-.55.45-1 1-1s1 .45 1 1zm4 0c0 .56-.44 1-1 1-.54 0-1-.44-1-1 0-.55.46-1 1-1 .56 0 1 .45 1 1zm4.02 0c0 .56-.46 1-1 1-.56 0-1-.44-1-1 0-.55.44-1 1-1 .54 0 1 .45 1 1zm4 0c0 .56-.45 1-1 1s-1-.44-1-1c0-.55.45-1 1-1s1 .45 1 1zm4 0c0 .56-.44 1-1 1-.55 0-1-.44-1-1 0-.55.45-1 1-1 .56 0 1 .45 1 1zm4.02 0c0 .56-.45 1-1 1-.56 0-1-.44-1-1 0-.55.44-1 1-1 .55 0 1 .45 1 1zm4 0c0 .56-.44 1-1 1-.55 0-1-.44-1-1 0-.55.45-1 1-1 .56 0 1 .45 1 1zm4 0c0 .56-.43 1-1 1-.54 0-1-.44-1-1 0-.55.46-1 1-1 .57 0 1 .45 1 1zm4.02 0c0 .56-.44 1-1 1-.55 0-1-.44-1-1 0-.55.45-1 1-1 .56 0 1 .45 1 1zm4 0c0 .56-.44 1-1 1-.54 0-1-.44-1-1 0-.55.46-1 1-1 .56 0 1 .45 1 1zm4.02 0c0 .56-.45 1-1 1s-1-.44-1-1c0-.55.45-1 1-1s1 .45 1 1zm4 0c0 .56-.44 1-1 1-.54 0-1-.44-1-1 0-.55.46-1 1-1 .56 0 1 .45 1 1zm4.02 0c0 .55-.45 1-1 1s-1-.45-1-1 .45-1 1-1 1 .45 1 1zm4 0c0 .55-.44 1-1 1-.54 0-1-.45-1-1s.46-1 1-1c.56 0 1 .45 1 1zm4.02 0c0 .55-.45 1-1 1s-1-.45-1-1 .45-1 1-1 1 .45 1 1zm4 0c0 .55-.44 1-1 1-.55 0-1-.45-1-1s.45-1 1-1c.56 0 1 .45 1 1zm4.02 0c0 .55-.45 1-1 1-.56 0-1-.45-1-1s.44-1 1-1c.55 0 1 .45 1 1zm4 0c0 .55-.44 1-1 1-.55 0-1-.45-1-1s.45-1 1-1c.56 0 1 .45 1 1zm4 0c0 .55-.43 1-1 1-.54 0-1-.45-1-1s.46-1 1-1c.57 0 1 .45 1 1zm4.02 0c0 .55-.44 1-1 1-.55 0-1-.45-1-1s.45-1 1-1c.56 0 1 .45 1 1zm4 0c0 .55-.44 1-1 1-.54 0-1-.45-1-1s.46-1 1-1c.56 0 1 .45 1 1zm4.02 0c0 .55-.45 1-1 1s-1-.45-1-1 .45-1 1-1 1 .45 1 1zm4 0c0 .55-.44 1-1 1-.54 0-1-.45-1-1s.46-1 1-1c.56 0 1 .45 1 1zm4.02 0c0 .55-.45 1-1 1s-1-.45-1-1 .45-1 1-1 1 .45 1 1zm4 0c0 .55-.44 1-1 1-.54 0-1-.45-1-1s.46-1 1-1c.56 0 1 .45 1 1zm4.02 0c0 .55-.45 1-1 1s-1-.45-1-1 .45-1 1-1 1 .45 1 1zm4 0c0 .55-.44 1-1 1-.54 0-1-.45-1-1s.46-1 1-1c.56 0 1 .45 1 1zm4.02 0c0 .55-.45 1-1 1-.56 0-1-.45-1-1s.44-1 1-1c.55 0 1 .45 1 1zm4 0c0 .55-.44 1-1 1-.55 0-1-.45-1-1 0-.56.45-1 1-1 .56 0 1 .44 1 1zm4 0c0 .55-.43 1-1 1-.54 0-1-.45-1-1 0-.56.46-1 1-1 .57 0 1 .44 1 1zm4.02 0c0 .55-.44 1-1 1-.55 0-1-.45-1-1 0-.56.45-1 1-1 .56 0 1 .44 1 1zm4 0c0 .55-.43 1-1 1-.54 0-1-.45-1-1 0-.56.46-1 1-1 .57 0 1 .44 1 1zm4.02 0c0 .55-.45 1-1 1s-1-.45-1-1c0-.56.45-1 1-1s1 .44 1 1zm4 0c0 .55-.44 1-1 1-.54 0-1-.45-1-1 0-.56.46-1 1-1 .56 0 1 .44 1 1zm4.02 0c0 .55-.45 1-1 1s-1-.45-1-1c0-.56.45-1 1-1s1 .44 1 1zm4 0c0 .55-.44 1-1 1-.54 0-1-.45-1-1 0-.56.46-1 1-1 .56 0 1 .44 1 1zm4.02 0c0 .55-.45 1-1 1s-1-.45-1-1c0-.56.45-1 1-1s1 .44 1 1zm4 0c0 .55-.44 1-1 1-.54 0-1-.45-1-1 0-.56.46-1 1-1 .56 0 1 .44 1 1zm4.02 0c0 .55-.45 1-1 1-.56 0-1-.45-1-1 0-.56.44-1 1-1 .55 0 1 .44 1 1zm4 0c0 .55-.44 1-1 1-.55 0-1-.45-1-1 0-.56.45-1 1-1 .56 0 1 .44 1 1zm4 0c0 .55-.43 1-1 1-.54 0-1-.45-1-1 0-.56.46-1 1-1 .57 0 1 .44 1 1zm4.02 0c0 .54-.44 1-1 1-.55 0-1-.46-1-1 0-.56.45-1 1-1 .56 0 1 .44 1 1zm4 0c0 .54-.43 1-1 1-.54 0-1-.46-1-1 0-.56.46-1 1-1 .57 0 1 .44 1 1zm4.02 0c0 .54-.45 1-1 1s-1-.46-1-1c0-.56.45-1 1-1s1 .44 1 1zm4 0c0 .54-.44 1-1 1-.54 0-1-.46-1-1 0-.56.46-1 1-1 .56 0 1 .44 1 1zm4.02 0c0 .54-.45 1-1 1s-1-.46-1-1c0-.56.45-1 1-1s1 .44 1 1zm4 0c0 .54-.44 1-1 1-.54 0-1-.46-1-1 0-.56.46-1 1-1 .56 0 1 .44 1 1zm4.02 0c0 .54-.45 1-1 1s-1-.46-1-1c0-.56.45-1 1-1s1 .44 1 1zm4 0c0 .54-.44 1-1 1-.54 0-1-.46-1-1 0-.56.46-1 1-1 .56 0 1 .44 1 1zm4.02 0c0 .54-.45 1-1 1-.56 0-1-.46-1-1 0-.56.44-1 1-1 .55 0 1 .44 1 1zm4 0c0 .54-.44 1-1 1-.55 0-1-.46-1-1 0-.56.45-1 1-1 .56 0 1 .44 1 1zm4.02 0c0 .54-.45 1-1 1-.56 0-1-.46-1-1 0-.56.44-1 1-1 .55 0 1 .44 1 1zm4 0c0 .54-.44 1-1 1-.55 0-1-.46-1-1 0-.56.45-1 1-1 .56 0 1 .44 1 1zm4 0c0 .54-.43 1-1 1-.54 0-1-.46-1-1 0-.56.46-1 1-1 .57 0 1 .44 1 1zm4.02 0c0 .54-.45 1-1 1s-1-.46-1-1c0-.56.45-1 1-1s1 .44 1 1zm4 0c0 .54-.44 1-1 1-.54 0-1-.46-1-1 0-.56.46-1 1-1 .56 0 1 .44 1 1zm4.02 0c0 .54-.45 1-1 1s-1-.46-1-1c0-.57.45-1 1-1s1 .43 1 1zm4 0c0 .54-.44 1-1 1-.54 0-1-.46-1-1 0-.57.46-1 1-1 .56 0 1 .43 1 1zm4.02 0c0 .54-.45 1-1 1s-1-.46-1-1c0-.57.45-1 1-1s1 .43 1 1zm4 0c0 .54-.44 1-1 1-.54 0-1-.46-1-1 0-.57.46-1 1-1 .56 0 1 .43 1 1zm4.02 0c0 .54-.45 1-1 1-.56 0-1-.46-1-1 0-.57.44-1 1-1 .55 0 1 .43 1 1zm4 0c0 .54-.44 1-1 1-.55 0-1-.46-1-1 0-.57.45-1 1-1 .56 0 1 .43 1 1zm4.02 0c0 .54-.45 1-1 1-.56 0-1-.46-1-1 0-.57.44-1 1-1 .55 0 1 .43 1 1zm4-.02c0 .56-.44 1-1 1-.55 0-1-.44-1-1 0-.55.45-1 1-1 .56 0 1 .45 1 1zm4 0c0 .56-.43 1-1 1-.54 0-1-.44-1-1 0-.55.46-1 1-1 .57 0 1 .45 1 1zm4.02 0c0 .56-.45 1-1 1s-1-.44-1-1c0-.55.45-1 1-1s1 .45 1 1zm4 0c0 .56-.44 1-1 1-.54 0-1-.44-1-1 0-.55.46-1 1-1 .56 0 1 .45 1 1zm4.02 0c0 .56-.45 1-1 1s-1-.44-1-1c0-.55.45-1 1-1s1 .45 1 1zm4 0c0 .56-.44 1-1 1-.54 0-1-.44-1-1 0-.55.46-1 1-1 .56 0 1 .45 1 1zm4.02 0c0 .55-.45 1-1 1s-1-.45-1-1 .45-1 1-1 1 .45 1 1zm4 0c0 .55-.44 1-1 1-.54 0-1-.45-1-1s.46-1 1-1c.56 0 1 .45 1 1zm4.02 0c0 .55-.45 1-1 1-.56 0-1-.45-1-1s.44-1 1-1c.55 0 1 .45 1 1zm4 0c0 .55-.44 1-1 1-.55 0-1-.45-1-1s.45-1 1-1c.56 0 1 .45 1 1zm4.02 0c0 .55-.45 1-1 1-.56 0-1-.45-1-1s.44-1 1-1c.55 0 1 .45 1 1zm4 0c0 .55-.44 1-1 1-.55 0-1-.45-1-1s.45-1 1-1c.56 0 1 .45 1 1zm4 0c0 .55-.43 1-1 1-.54 0-1-.45-1-1s.46-1 1-1c.57 0 1 .45 1 1zm4.02 0c0 .55-.44 1-1 1-.55 0-1-.45-1-1s.45-1 1-1c.56 0 1 .45 1 1zm4 0c0 .55-.44 1-1 1-.54 0-1-.45-1-1s.46-1 1-1c.56 0 1 .45 1 1zm4.02 0c0 .55-.45 1-1 1s-1-.45-1-1 .45-1 1-1 1 .45 1 1zm4 0c0 .55-.44 1-1 1-.54 0-1-.45-1-1s.46-1 1-1c.56 0 1 .45 1 1zm4.02 0c0 .55-.45 1-1 1s-1-.45-1-1 .45-1 1-1 1 .45 1 1zm4 0c0 .55-.44 1-1 1-.54 0-1-.45-1-1s.46-1 1-1c.56 0 1 .45 1 1zm4.02 0c0 .55-.45 1-1 1s-1-.45-1-1 .45-1 1-1 1 .45 1 1zm4 0c0 .55-.44 1-1 1-.55 0-1-.45-1-1s.45-1 1-1c.56 0 1 .45 1 1zm4.02 0c0 .55-.45 1-1 1-.56 0-1-.45-1-1s.44-1 1-1c.55 0 1 .45 1 1zm4 0c0 .55-.44 1-1 1-.55 0-1-.45-1-1 0-.56.45-1 1-1 .56 0 1 .44 1 1zm4 0c0 .55-.43 1-1 1-.54 0-1-.45-1-1 0-.56.46-1 1-1 .57 0 1 .44 1 1zm4.02 0c0 .55-.44 1-1 1-.55 0-1-.45-1-1 0-.56.45-1 1-1 .56 0 1 .44 1 1zm4 0c0 .55-.44 1-1 1-.54 0-1-.45-1-1 0-.56.46-1 1-1 .56 0 1 .44 1 1zm4.02 0c0 .55-.45 1-1 1s-1-.45-1-1c0-.56.45-1 1-1s1 .44 1 1zm4 0c0 .55-.44 1-1 1-.54 0-1-.45-1-1 0-.56.46-1 1-1 .56 0 1 .44 1 1zm4.02 0c0 .55-.45 1-1 1s-1-.45-1-1c0-.56.45-1 1-1s1 .44 1 1zm4 0c0 .55-.44 1-1 1-.54 0-1-.45-1-1 0-.56.46-1 1-1 .56 0 1 .44 1 1zm4.02 0c0 .55-.45 1-1 1s-1-.45-1-1c0-.56.45-1 1-1s1 .44 1 1zm4 0c0 .55-.44 1-1 1-.55 0-1-.45-1-1 0-.56.45-1 1-1 .56 0 1 .44 1 1zm4.02 0c0 .55-.45 1-1 1-.56 0-1-.45-1-1 0-.56.44-1 1-1 .55 0 1 .44 1 1zm4 0c0 .55-.44 1-1 1-.55 0-1-.45-1-1 0-.56.45-1 1-1 .56 0 1 .44 1 1zm4 0c0 .55-.43 1-1 1-.54 0-1-.45-1-1 0-.56.46-1 1-1 .57 0 1 .44 1 1zm4.02 0c0 .54-.44 1-1 1-.55 0-1-.46-1-1 0-.56.45-1 1-1 .56 0 1 .44 1 1zm4 0c0 .54-.44 1-1 1-.54 0-1-.46-1-1 0-.56.46-1 1-1 .56 0 1 .44 1 1zm4.02 0c0 .54-.45 1-1 1s-1-.46-1-1c0-.56.45-1 1-1s1 .44 1 1zm4 0c0 .54-.44 1-1 1-.54 0-1-.46-1-1 0-.56.46-1 1-1 .56 0 1 .44 1 1zm4.02 0c0 .54-.45 1-1 1s-1-.46-1-1c0-.56.45-1 1-1s1 .44 1 1zm4 0c0 .54-.44 1-1 1-.54 0-1-.46-1-1 0-.56.46-1 1-1 .56 0 1 .44 1 1zm4.02 0c0 .54-.45 1-1 1s-1-.46-1-1c0-.56.45-1 1-1s1 .44 1 1zm4 0c0 .54-.44 1-1 1-.55 0-1-.46-1-1 0-.56.45-1 1-1 .56 0 1 .44 1 1zm4.02 0c0 .54-.45 1-1 1-.56 0-1-.46-1-1 0-.56.44-1 1-1 .55 0 1 .44 1 1zm4 0c0 .54-.44 1-1 1-.55 0-1-.46-1-1 0-.56.45-1 1-1 .56 0 1 .44 1 1zm4 0c0 .54-.43 1-1 1-.54 0-1-.46-1-1 0-.56.46-1 1-1 .57 0 1 .44 1 1zm4.02 0c0 .54-.44 1-1 1-.55 0-1-.46-1-1 0-.56.45-1 1-1 .56 0 1 .44 1 1zm4 0c0 .54-.44 1-1 1-.54 0-1-.46-1-1 0-.56.46-1 1-1 .56 0 1 .44 1 1zm4.02 0c0 .54-.45 1-1 1s-1-.46-1-1c0-.56.45-1 1-1s1 .44 1 1zm4 0c0 .54-.44 1-1 1-.54 0-1-.46-1-1 0-.56.46-1 1-1 .56 0 1 .44 1 1zm4.02 0c0 .54-.45 1-1 1s-1-.46-1-1c0-.57.45-1 1-1s1 .43 1 1zm4 0c0 .54-.44 1-1 1-.54 0-1-.46-1-1 0-.57.46-1 1-1 .56 0 1 .43 1 1zm4.02 0c0 .54-.45 1-1 1s-1-.46-1-1c0-.57.45-1 1-1s1 .43 1 1zm4 0c0 .54-.44 1-1 1-.55 0-1-.46-1-1 0-.57.45-1 1-1 .56 0 1 .43 1 1zm4.02 0c0 .54-.45 1-1 1-.56 0-1-.46-1-1 0-.57.44-1 1-1 .55 0 1 .43 1 1zm4 0c0 .54-.44 1-1 1-.55 0-1-.46-1-1 0-.57.45-1 1-1 .56 0 1 .43 1 1zm4 0c0 .54-.43 1-1 1-.54 0-1-.46-1-1 0-.57.46-1 1-1 .57 0 1 .43 1 1zm4.02-.02c0 .56-.44 1-1 1-.55 0-1-.44-1-1 0-.55.45-1 1-1 .56 0 1 .45 1 1zm4 0c0 .56-.44 1-1 1-.54 0-1-.44-1-1 0-.55.46-1 1-1 .56 0 1 .45 1 1zm4.02 0c0 .56-.45 1-1 1s-1-.44-1-1c0-.55.45-1 1-1s1 .45 1 1zm4 0c0 .56-.44 1-1 1-.54 0-1-.44-1-1 0-.55.46-1 1-1 .56 0 1 .45 1 1zm4.02 0c0 .56-.45 1-1 1s-1-.44-1-1c0-.55.45-1 1-1s1 .45 1 1zm4 0c0 .56-.44 1-1 1-.54 0-1-.44-1-1 0-.55.46-1 1-1 .56 0 1 .45 1 1zm4.02 0c0 .55-.45 1-1 1s-1-.45-1-1 .45-1 1-1 1 .45 1 1zm4 0c0 .55-.44 1-1 1-.54 0-1-.45-1-1s.46-1 1-1c.56 0 1 .45 1 1zm4.02 0c0 .55-.45 1-1 1-.56 0-1-.45-1-1s.44-1 1-1c.55 0 1 .45 1 1zm4 0c0 .55-.44 1-1 1-.55 0-1-.45-1-1s.45-1 1-1c.56 0 1 .45 1 1zm4 0c0 .55-.43 1-1 1-.54 0-1-.45-1-1s.46-1 1-1c.57 0 1 .45 1 1zm4.02 0c0 .55-.44 1-1 1-.55 0-1-.45-1-1s.45-1 1-1c.56 0 1 .45 1 1zm4 0c0 .55-.43 1-1 1-.54 0-1-.45-1-1s.46-1 1-1c.57 0 1 .45 1 1zm4.02 0c0 .55-.45 1-1 1s-1-.45-1-1 .45-1 1-1 1 .45 1 1zm4 0c0 .55-.44 1-1 1-.54 0-1-.45-1-1s.46-1 1-1c.56 0 1 .45 1 1zm4.02 0c0 .55-.45 1-1 1s-1-.45-1-1 .45-1 1-1 1 .45 1 1zm4 0c0 .55-.44 1-1 1-.54 0-1-.45-1-1s.46-1 1-1c.56 0 1 .45 1 1zm4.02 0c0 .55-.45 1-1 1s-1-.45-1-1 .45-1 1-1 1 .45 1 1zm4 0c0 .55-.44 1-1 1-.54 0-1-.45-1-1s.46-1 1-1c.56 0 1 .45 1 1zm4.02 0c0 .55-.45 1-1 1-.56 0-1-.45-1-1s.44-1 1-1c.55 0 1 .45 1 1zm4 0c0 .55-.44 1-1 1-.55 0-1-.45-1-1s.45-1 1-1c.56 0 1 .45 1 1zm4 0c0 .55-.43 1-1 1-.54 0-1-.45-1-1s.46-1 1-1c.57 0 1 .45 1 1zm4.02 0c0 .55-.44 1-1 1-.55 0-1-.45-1-1 0-.56.45-1 1-1 .56 0 1 .44 1 1zm4 0c0 .55-.43 1-1 1-.54 0-1-.45-1-1 0-.56.46-1 1-1 .57 0 1 .44 1 1zm4.02 0c0 .55-.45 1-1 1s-1-.45-1-1c0-.56.45-1 1-1s1 .44 1 1zm4 0c0 .55-.44 1-1 1-.54 0-1-.45-1-1 0-.56.46-1 1-1 .56 0 1 .44 1 1zm4.02 0c0 .55-.45 1-1 1s-1-.45-1-1c0-.56.45-1 1-1s1 .44 1 1zm4 0c0 .55-.44 1-1 1-.54 0-1-.45-1-1 0-.56.46-1 1-1 .56 0 1 .44 1 1zm4.02 0c0 .55-.45 1-1 1s-1-.45-1-1c0-.56.45-1 1-1s1 .44 1 1zm4 0c0 .55-.44 1-1 1-.54 0-1-.45-1-1 0-.56.46-1 1-1 .56 0 1 .44 1 1zm4.02 0c0 .55-.45 1-1 1-.56 0-1-.45-1-1 0-.56.44-1 1-1 .55 0 1 .44 1 1zm4 0c0 .55-.44 1-1 1-.55 0-1-.45-1-1 0-.56.45-1 1-1 .56 0 1 .44 1 1zm4.02 0c0 .55-.45 1-1 1-.56 0-1-.45-1-1 0-.56.44-1 1-1 .55 0 1 .44 1 1zm4 0c0 .55-.44 1-1 1-.55 0-1-.45-1-1 0-.56.45-1 1-1 .56 0 1 .44 1 1zm4 0c0 .55-.43 1-1 1-.54 0-1-.45-1-1 0-.56.46-1 1-1 .57 0 1 .44 1 1zm4.02 0c0 .54-.45 1-1 1s-1-.46-1-1c0-.56.45-1 1-1s1 .44 1 1zm4 0c0 .54-.44 1-1 1-.54 0-1-.46-1-1 0-.56.46-1 1-1 .56 0 1 .44 1 1zm4.02 0c0 .54-.45 1-1 1s-1-.46-1-1c0-.56.45-1 1-1s1 .44 1 1zm4 0c0 .54-.44 1-1 1-.54 0-1-.46-1-1 0-.56.46-1 1-1 .56 0 1 .44 1 1zm4.02 0c0 .54-.45 1-1 1s-1-.46-1-1c0-.56.45-1 1-1s1 .44 1 1zm4 0c0 .54-.44 1-1 1-.54 0-1-.46-1-1 0-.56.46-1 1-1 .56 0 1 .44 1 1zm4.02 0c0 .54-.45 1-1 1-.56 0-1-.46-1-1 0-.56.44-1 1-1 .55 0 1 .44 1 1zm4 0c0 .54-.44 1-1 1-.55 0-1-.46-1-1 0-.56.45-1 1-1 .56 0 1 .44 1 1zm4.02 0c0 .54-.45 1-1 1-.56 0-1-.46-1-1 0-.56.44-1 1-1 .55 0 1 .44 1 1zm4 0c0 .54-.44 1-1 1-.55 0-1-.46-1-1 0-.56.45-1 1-1 .56 0 1 .44 1 1zm4 0c0 .54-.43 1-1 1-.54 0-1-.46-1-1 0-.56.46-1 1-1 .57 0 1 .44 1 1zm4.02 0c0 .54-.45 1-1 1s-1-.46-1-1c0-.56.45-1 1-1s1 .44 1 1zm4 0c0 .54-.44 1-1 1-.54 0-1-.46-1-1 0-.56.46-1 1-1 .56 0 1 .44 1 1zm4.02 0c0 .54-.45 1-1 1s-1-.46-1-1c0-.56.45-1 1-1s1 .44 1 1zm4 0c0 .54-.44 1-1 1-.54 0-1-.46-1-1 0-.56.46-1 1-1 .56 0 1 .44 1 1zm4.02 0c0 .54-.45 1-1 1s-1-.46-1-1c0-.57.45-1 1-1s1 .43 1 1zm4 0c0 .54-.44 1-1 1-.54 0-1-.46-1-1 0-.57.46-1 1-1 .56 0 1 .43 1 1zm4.02 0c0 .54-.45 1-1 1-.56 0-1-.46-1-1 0-.57.44-1 1-1 .55 0 1 .43 1 1zm4 0c0 .54-.44 1-1 1-.55 0-1-.46-1-1 0-.57.45-1 1-1 .56 0 1 .43 1 1zm4.02 0c0 .54-.45 1-1 1-.56 0-1-.46-1-1 0-.57.44-1 1-1 .55 0 1 .43 1 1zm4 0c0 .54-.44 1-1 1-.55 0-1-.46-1-1 0-.57.45-1 1-1 .56 0 1 .43 1 1zm4 0c0 .54-.43 1-1 1-.54 0-1-.46-1-1 0-.57.46-1 1-1 .57 0 1 .43 1 1zm4.02-.02c0 .56-.44 1-1 1-.55 0-1-.44-1-1 0-.55.45-1 1-1 .56 0 1 .45 1 1zm4 0c0 .56-.44 1-1 1-.54 0-1-.44-1-1 0-.55.46-1 1-1 .56 0 1 .45 1 1zm4.02 0c0 .56-.45 1-1 1s-1-.44-1-1c0-.55.45-1 1-1s1 .45 1 1zm4 0c0 .56-.44 1-1 1-.54 0-1-.44-1-1 0-.55.46-1 1-1 .56 0 1 .45 1 1zm4.02 0c0 .56-.45 1-1 1s-1-.44-1-1c0-.55.45-1 1-1s1 .45 1 1zm4 0c0 .56-.44 1-1 1-.54 0-1-.44-1-1 0-.55.46-1 1-1 .56 0 1 .45 1 1zm4.02 0c0 .55-.45 1-1 1s-1-.45-1-1 .45-1 1-1 1 .45 1 1zm4 0c0 .55-.44 1-1 1-.55 0-1-.45-1-1s.45-1 1-1c.56 0 1 .45 1 1zm4.02 0c0 .55-.45 1-1 1-.56 0-1-.45-1-1s.44-1 1-1c.55 0 1 .45 1 1zm4 0c0 .55-.44 1-1 1-.55 0-1-.45-1-1s.45-1 1-1c.56 0 1 .45 1 1zm4 0c0 .55-.43 1-1 1-.54 0-1-.45-1-1s.46-1 1-1c.57 0 1 .45 1 1zm4.02 0c0 .55-.44 1-1 1-.55 0-1-.45-1-1s.45-1 1-1c.56 0 1 .45 1 1zm4 0c0 .55-.44 1-1 1-.54 0-1-.45-1-1s.46-1 1-1c.56 0 1 .45 1 1zm4.02 0c0 .55-.45 1-1 1s-1-.45-1-1 .45-1 1-1 1 .45 1 1zm4 0c0 .55-.44 1-1 1-.54 0-1-.45-1-1s.46-1 1-1c.56 0 1 .45 1 1zm4.02 0c0 .55-.45 1-1 1s-1-.45-1-1 .45-1 1-1 1 .45 1 1zm4 0c0 .55-.44 1-1 1-.54 0-1-.45-1-1s.46-1 1-1c.56 0 1 .45 1 1zm4.02 0c0 .55-.45 1-1 1s-1-.45-1-1 .45-1 1-1 1 .45 1 1zm4 0c0 .55-.44 1-1 1-.55 0-1-.45-1-1s.45-1 1-1c.56 0 1 .45 1 1zm4.02 0c0 .55-.45 1-1 1-.56 0-1-.45-1-1s.44-1 1-1c.55 0 1 .45 1 1zm4 0c0 .55-.44 1-1 1-.55 0-1-.45-1-1s.45-1 1-1c.56 0 1 .45 1 1zm4 0c0 .55-.43 1-1 1-.54 0-1-.45-1-1s.46-1 1-1c.57 0 1 .45 1 1zm4.02 0c0 .55-.44 1-1 1-.55 0-1-.45-1-1 0-.56.45-1 1-1 .56 0 1 .44 1 1zm4 0c0 .55-.44 1-1 1-.54 0-1-.45-1-1 0-.56.46-1 1-1 .56 0 1 .44 1 1zm4.02 0c0 .55-.45 1-1 1s-1-.45-1-1c0-.56.45-1 1-1s1 .44 1 1zm4 0c0 .55-.44 1-1 1-.54 0-1-.45-1-1 0-.56.46-1 1-1 .56 0 1 .44 1 1zm4.02 0c0 .55-.45 1-1 1s-1-.45-1-1c0-.56.45-1 1-1s1 .44 1 1zm4 0c0 .55-.44 1-1 1-.54 0-1-.45-1-1 0-.56.46-1 1-1 .56 0 1 .44 1 1zm4.02 0c0 .55-.45 1-1 1s-1-.45-1-1c0-.56.45-1 1-1s1 .44 1 1zm4 0c0 .55-.44 1-1 1-.55 0-1-.45-1-1 0-.56.45-1 1-1 .56 0 1 .44 1 1zm4.02 0c0 .55-.45 1-1 1-.56 0-1-.45-1-1 0-.56.44-1 1-1 .55 0 1 .44 1 1zm4 0c0 .55-.44 1-1 1-.55 0-1-.45-1-1 0-.56.45-1 1-1 .56 0 1 .44 1 1zm4 0c0 .55-.43 1-1 1-.54 0-1-.45-1-1 0-.56.46-1 1-1 .57 0 1 .44 1 1zm4.02 0c0 .55-.44 1-1 1-.55 0-1-.45-1-1 0-.56.45-1 1-1 .56 0 1 .44 1 1zm3.9 1.44c0 .56-.46 1-1 1-.56 0-1-.44-1-1 0-.55.44-1 1-1 .54 0 1 .45 1 1zm2.03 3.6c0 .57-.44 1-1 1-.54 0-1-.43-1-1 0-.54.46-1 1-1 .56 0 1 .46 1 1zm0 4.04c0 .55-.44 1-1 1-.54 0-1-.45-1-1s.46-1 1-1c.56 0 1 .45 1 1zm0 4.02c0 .55-.43 1-1 1-.54 0-1-.45-1-1s.46-1 1-1c.57 0 1 .45 1 1zm.02 4.03c0 .55-.45 1-1 1-.56 0-1-.45-1-1 0-.56.44-1 1-1 .55 0 1 .44 1 1zm0 4.02c0 .54-.45 1-1 1-.56 0-1-.46-1-1 0-.56.44-1 1-1 .55 0 1 .44 1 1zm0 4c0 .57-.45 1-1 1s-1-.43-1-1c0-.54.45-1 1-1s1 .46 1 1zm0 4.04c0 .55-.45 1-1 1s-1-.45-1-1 .45-1 1-1 1 .45 1 1zm0 4.02c0 .55-.45 1-1 1s-1-.45-1-1 .45-1 1-1 1 .45 1 1zm0 4.03c0 .54-.44 1-1 1-.55 0-1-.46-1-1 0-.57.45-1 1-1 .56 0 1 .43 1 1zm0 4c0 .56-.44 1-1 1-.55 0-1-.44-1-1 0-.54.45-1 1-1 .56 0 1 .46 1 1zm0 4.03c0 .56-.44 1-1 1-.54 0-1-.44-1-1 0-.55.46-1 1-1 .56 0 1 .45 1 1zm0 4.03c0 .55-.44 1-1 1-.54 0-1-.45-1-1s.46-1 1-1c.56 0 1 .45 1 1zm0 4.02c0 .55-.44 1-1 1-.54 0-1-.45-1-1s.46-1 1-1c.56 0 1 .45 1 1zm0 4.03c0 .56-.43 1-1 1-.54 0-1-.44-1-1 0-.55.46-1 1-1 .57 0 1 .45 1 1zm.02 4.03c0 .55-.45 1-1 1-.56 0-1-.45-1-1s.44-1 1-1c.55 0 1 .45 1 1zm0 4.02c0 .56-.45 1-1 1s-1-.44-1-1c0-.55.45-1 1-1s1 .45 1 1zm0 4.03c0 .55-.45 1-1 1s-1-.45-1-1 .45-1 1-1 1 .45 1 1zm0 4.02c0 .55-.45 1-1 1s-1-.45-1-1 .45-1 1-1 1 .45 1 1zm0 4.03c0 .55-.44 1-1 1-.55 0-1-.45-1-1 0-.56.45-1 1-1 .56 0 1 .44 1 1zm0 4.02c0 .55-.44 1-1 1-.55 0-1-.45-1-1s.45-1 1-1c.56 0 1 .45 1 1zm0 4.02c0 .56-.44 1-1 1-.54 0-1-.44-1-1 0-.55.46-1 1-1 .56 0 1 .45 1 1zm0 4.03c0 .55-.44 1-1 1-.54 0-1-.45-1-1s.46-1 1-1c.56 0 1 .45 1 1zm0 4.02c0 .55-.44 1-1 1-.54 0-1-.45-1-1s.46-1 1-1c.56 0 1 .45 1 1zm0 4.03c0 .55-.43 1-1 1-.54 0-1-.45-1-1 0-.56.46-1 1-1 .57 0 1 .44 1 1zm0 4.02c0 .55-.43 1-1 1-.54 0-1-.45-1-1s.46-1 1-1c.57 0 1 .45 1 1zm.02 4.02c0 .55-.45 1-1 1-.56 0-1-.45-1-1 0-.56.44-1 1-1 .55 0 1 .44 1 1zm0 4.02c0 .55-.45 1-1 1s-1-.45-1-1 .45-1 1-1 1 .45 1 1zm0 4.02c0 .55-.45 1-1 1s-1-.45-1-1 .45-1 1-1 1 .45 1 1zm0 4.03c0 .55-.45 1-1 1s-1-.45-1-1c0-.56.45-1 1-1s1 .44 1 1zm0 4.02c0 .54-.44 1-1 1-.55 0-1-.46-1-1 0-.56.45-1 1-1 .56 0 1 .44 1 1zm0 4c0 .57-.44 1-1 1-.55 0-1-.43-1-1 0-.54.45-1 1-1 .56 0 1 .46 1 1zm0 4.04c0 .55-.44 1-1 1-.54 0-1-.45-1-1s.46-1 1-1c.56 0 1 .45 1 1zm0 4.02c0 .55-.44 1-1 1-.54 0-1-.45-1-1s.46-1 1-1c.56 0 1 .45 1 1zm0 4.03c0 .54-.44 1-1 1-.54 0-1-.46-1-1 0-.57.46-1 1-1 .56 0 1 .43 1 1zm0 4c0 .56-.43 1-1 1-.54 0-1-.44-1-1 0-.54.46-1 1-1 .57 0 1 .46 1 1zm.02 4.03c0 .56-.45 1-1 1-.56 0-1-.44-1-1 0-.55.44-1 1-1 .55 0 1 .45 1 1zm0 4.03c0 .55-.45 1-1 1s-1-.45-1-1c0-.56.45-1 1-1s1 .44 1 1zm0 4.02c0 .55-.45 1-1 1s-1-.45-1-1 .45-1 1-1 1 .45 1 1zm0 4.03c0 .56-.45 1-1 1s-1-.44-1-1c0-.55.45-1 1-1s1 .45 1 1zm0 4.03c0 .55-.44 1-1 1-.55 0-1-.45-1-1s.45-1 1-1c.56 0 1 .45 1 1zm-1.45 3.88c0 .57-.45 1-1 1s-1-.43-1-1c0-.54.45-1 1-1s1 .46 1 1zm-3.6 2.06c0 .55-.46 1-1 1-.56 0-1-.45-1-1 0-.56.44-1 1-1 .54 0 1 .44 1 1zm-4.02 0c0 .55-.43 1-1 1-.54 0-1-.45-1-1 0-.56.46-1 1-1 .57 0 1 .44 1 1zm-4 0c0 .55-.44 1-1 1-.55 0-1-.45-1-1 0-.56.45-1 1-1 .56 0 1 .44 1 1zm-4 0c0 .55-.45 1-1 1-.56 0-1-.45-1-1 0-.56.44-1 1-1 .55 0 1 .44 1 1zm-4 0c0 .55-.46 1-1 1-.57 0-1-.45-1-1 0-.56.43-1 1-1 .54 0 1 .44 1 1zm-4.02 0c0 .55-.45 1-1 1-.56 0-1-.45-1-1 0-.56.44-1 1-1 .55 0 1 .44 1 1zm-4 0c0 .55-.46 1-1 1-.57 0-1-.45-1-1 0-.56.43-1 1-1 .54 0 1 .44 1 1zm-4.02 0c0 .55-.45 1-1 1s-1-.45-1-1 .45-1 1-1 1 .45 1 1zm-4 0c0 .55-.46 1-1 1-.56 0-1-.45-1-1s.44-1 1-1c.54 0 1 .45 1 1zm-4.02 0c0 .55-.45 1-1 1s-1-.45-1-1 .45-1 1-1 1 .45 1 1zm-4 0c0 .55-.46 1-1 1-.56 0-1-.45-1-1s.44-1 1-1c.54 0 1 .45 1 1zm-4.02 0c0 .55-.45 1-1 1s-1-.45-1-1 .45-1 1-1 1 .45 1 1zm-4 0c0 .55-.46 1-1 1-.56 0-1-.45-1-1s.44-1 1-1c.54 0 1 .45 1 1zm-4.02 0c0 .55-.44 1-1 1-.55 0-1-.45-1-1s.45-1 1-1c.56 0 1 .45 1 1zm-4 0c0 .55-.45 1-1 1-.56 0-1-.45-1-1s.44-1 1-1c.55 0 1 .45 1 1zm-4 0c0 .55-.46 1-1 1-.57 0-1-.45-1-1s.43-1 1-1c.54 0 1 .45 1 1zm-4.02 0c0 .55-.45 1-1 1-.56 0-1-.45-1-1s.44-1 1-1c.55 0 1 .45 1 1zm-4 0c0 .55-.46 1-1 1-.57 0-1-.45-1-1s.43-1 1-1c.54 0 1 .45 1 1zm-4.02 0c0 .55-.45 1-1 1s-1-.45-1-1 .45-1 1-1 1 .45 1 1zm-4 0c0 .55-.46 1-1 1-.56 0-1-.45-1-1s.44-1 1-1c.54 0 1 .45 1 1zm-4.02 0c0 .55-.45 1-1 1s-1-.45-1-1 .45-1 1-1 1 .45 1 1zm-4 0c0 .55-.46 1-1 1-.56 0-1-.45-1-1s.44-1 1-1c.54 0 1 .45 1 1zm-4.02 0c0 .56-.45 1-1 1s-1-.44-1-1c0-.55.45-1 1-1s1 .45 1 1zm-4 0c0 .56-.46 1-1 1-.56 0-1-.44-1-1 0-.55.44-1 1-1 .54 0 1 .45 1 1zm-4.02 0c0 .56-.44 1-1 1-.55 0-1-.44-1-1 0-.55.45-1 1-1 .56 0 1 .45 1 1zm-4 0c0 .56-.45 1-1 1-.56 0-1-.44-1-1 0-.55.44-1 1-1 .55 0 1 .45 1 1zm-4 0c0 .56-.46 1-1 1-.57 0-1-.44-1-1 0-.55.43-1 1-1 .54 0 1 .45 1 1zm-4.02 0c0 .56-.45 1-1 1-.56 0-1-.44-1-1 0-.55.44-1 1-1 .55 0 1 .45 1 1zm-4 0c0 .56-.46 1-1 1-.57 0-1-.44-1-1 0-.55.43-1 1-1 .54 0 1 .45 1 1zm-4.02 0c0 .56-.45 1-1 1s-1-.44-1-1c0-.55.45-1 1-1s1 .45 1 1zm-4 0c0 .56-.46 1-1 1-.56 0-1-.44-1-1 0-.55.44-1 1-1 .54 0 1 .45 1 1zm-4.02 0c0 .56-.45 1-1 1s-1-.44-1-1c0-.55.45-1 1-1s1 .45 1 1zm-4 0c0 .56-.46 1-1 1-.56 0-1-.44-1-1 0-.55.44-1 1-1 .54 0 1 .45 1 1zm-4.02 0c0 .56-.45 1-1 1s-1-.44-1-1c0-.55.45-1 1-1s1 .45 1 1zm-4 0c0 .56-.46 1-1 1-.56 0-1-.44-1-1 0-.55.44-1 1-1 .54 0 1 .45 1 1zm-4.02 0c0 .56-.44 1-1 1-.55 0-1-.44-1-1 0-.54.45-1 1-1 .56 0 1 .46 1 1zm-4 0c0 .56-.45 1-1 1-.56 0-1-.44-1-1 0-.54.44-1 1-1 .55 0 1 .46 1 1zm-4.02 0c0 .56-.44 1-1 1-.55 0-1-.44-1-1 0-.54.45-1 1-1 .56 0 1 .46 1 1zm-4 0c0 .56-.45 1-1 1-.56 0-1-.44-1-1 0-.54.44-1 1-1 .55 0 1 .46 1 1zm-4 0c0 .56-.46 1-1 1-.57 0-1-.44-1-1 0-.54.43-1 1-1 .54 0 1 .46 1 1zm-4.02 0c0 .56-.45 1-1 1s-1-.44-1-1c0-.54.45-1 1-1s1 .46 1 1zm-4 0c0 .56-.46 1-1 1-.56 0-1-.44-1-1 0-.54.44-1 1-1 .54 0 1 .46 1 1zm-4.02 0c0 .56-.45 1-1 1s-1-.44-1-1c0-.54.45-1 1-1s1 .46 1 1zm-4 0c0 .56-.46 1-1 1-.56 0-1-.44-1-1 0-.54.44-1 1-1 .54 0 1 .46 1 1zm-4.02 0c0 .56-.45 1-1 1s-1-.44-1-1c0-.54.45-1 1-1s1 .46 1 1zm-4 0c0 .56-.46 1-1 1-.56 0-1-.44-1-1 0-.54.44-1 1-1 .54 0 1 .46 1 1zm-4.02 0c0 .56-.44 1-1 1-.55 0-1-.44-1-1 0-.54.45-1 1-1 .56 0 1 .46 1 1zm-4 0c0 .56-.45 1-1 1-.56 0-1-.44-1-1 0-.54.44-1 1-1 .55 0 1 .46 1 1zm-4.02 0c0 .56-.44 1-1 1-.55 0-1-.44-1-1 0-.54.45-1 1-1 .56 0 1 .46 1 1zm-4 0c0 .56-.45 1-1 1-.56 0-1-.44-1-1 0-.54.44-1 1-1 .55 0 1 .46 1 1zm-4 0c0 .56-.46 1-1 1-.57 0-1-.44-1-1 0-.54.43-1 1-1 .54 0 1 .46 1 1zm-4.02 0c0 .57-.45 1-1 1s-1-.43-1-1c0-.54.45-1 1-1s1 .46 1 1zm-4 0c0 .57-.46 1-1 1-.56 0-1-.43-1-1 0-.54.44-1 1-1 .54 0 1 .46 1 1zm-4.02 0c0 .57-.45 1-1 1s-1-.43-1-1c0-.54.45-1 1-1s1 .46 1 1zm-4 0c0 .57-.46 1-1 1-.56 0-1-.43-1-1 0-.54.44-1 1-1 .54 0 1 .46 1 1zm-4.02 0c0 .57-.45 1-1 1s-1-.43-1-1c0-.54.45-1 1-1s1 .46 1 1zm-4 0c0 .57-.46 1-1 1-.56 0-1-.43-1-1 0-.54.44-1 1-1 .54 0 1 .46 1 1zm-4.02.02c0 .55-.44 1-1 1-.55 0-1-.45-1-1 0-.56.45-1 1-1 .56 0 1 .44 1 1zm-4 0c0 .55-.45 1-1 1-.56 0-1-.45-1-1 0-.56.44-1 1-1 .55 0 1 .44 1 1zm-4.02 0c0 .55-.44 1-1 1-.55 0-1-.45-1-1 0-.56.45-1 1-1 .56 0 1 .44 1 1zm-4 0c0 .55-.45 1-1 1-.56 0-1-.45-1-1 0-.56.44-1 1-1 .55 0 1 .44 1 1zm-4 0c0 .55-.46 1-1 1-.57 0-1-.45-1-1 0-.56.43-1 1-1 .54 0 1 .44 1 1zm-4.02 0c0 .55-.45 1-1 1-.56 0-1-.45-1-1 0-.56.44-1 1-1 .55 0 1 .44 1 1zm-4 0c0 .55-.46 1-1 1-.56 0-1-.45-1-1 0-.56.44-1 1-1 .54 0 1 .44 1 1zm-4.02 0c0 .55-.45 1-1 1s-1-.45-1-1 .45-1 1-1 1 .45 1 1zm-4 0c0 .55-.46 1-1 1-.56 0-1-.45-1-1s.44-1 1-1c.54 0 1 .45 1 1zm-4.02 0c0 .55-.45 1-1 1s-1-.45-1-1 .45-1 1-1 1 .45 1 1zm-4 0c0 .55-.46 1-1 1-.56 0-1-.45-1-1s.44-1 1-1c.54 0 1 .45 1 1zm-4.02 0c0 .55-.45 1-1 1s-1-.45-1-1 .45-1 1-1 1 .45 1 1zm-4 0c0 .55-.45 1-1 1-.56 0-1-.45-1-1s.44-1 1-1c.55 0 1 .45 1 1zm-4.02 0c0 .55-.44 1-1 1-.55 0-1-.45-1-1s.45-1 1-1c.56 0 1 .45 1 1zm-4 0c0 .55-.45 1-1 1-.56 0-1-.45-1-1s.44-1 1-1c.55 0 1 .45 1 1zm-4 0c0 .55-.46 1-1 1-.57 0-1-.45-1-1s.43-1 1-1c.54 0 1 .45 1 1zm-4.02 0c0 .55-.45 1-1 1-.56 0-1-.45-1-1s.44-1 1-1c.55 0 1 .45 1 1zm-4 0c0 .55-.46 1-1 1-.56 0-1-.45-1-1s.44-1 1-1c.54 0 1 .45 1 1zm-4.02 0c0 .55-.45 1-1 1s-1-.45-1-1 .45-1 1-1 1 .45 1 1zm-4 0c0 .55-.46 1-1 1-.56 0-1-.45-1-1s.44-1 1-1c.54 0 1 .45 1 1zm-4.02 0c0 .55-.45 1-1 1s-1-.45-1-1 .45-1 1-1 1 .45 1 1zm-4 0c0 .55-.46 1-1 1-.56 0-1-.45-1-1s.44-1 1-1c.54 0 1 .45 1 1zm-4.02 0c0 .56-.45 1-1 1s-1-.44-1-1c0-.55.45-1 1-1s1 .45 1 1zm-4 0c0 .56-.45 1-1 1-.56 0-1-.44-1-1 0-.55.44-1 1-1 .55 0 1 .45 1 1zm-4.02 0c0 .56-.44 1-1 1-.55 0-1-.44-1-1 0-.55.45-1 1-1 .56 0 1 .45 1 1zm-4 0c0 .56-.45 1-1 1-.56 0-1-.44-1-1 0-.55.44-1 1-1 .55 0 1 .45 1 1zm-4 0c0 .56-.46 1-1 1-.57 0-1-.44-1-1 0-.55.43-1 1-1 .54 0 1 .45 1 1zm-4.02 0c0 .56-.45 1-1 1-.56 0-1-.44-1-1 0-.55.44-1 1-1 .55 0 1 .45 1 1zm-4 0c0 .56-.46 1-1 1-.56 0-1-.44-1-1 0-.55.44-1 1-1 .54 0 1 .45 1 1zm-4.02 0c0 .56-.45 1-1 1s-1-.44-1-1c0-.55.45-1 1-1s1 .45 1 1zm-4 0c0 .56-.46 1-1 1-.56 0-1-.44-1-1 0-.55.44-1 1-1 .54 0 1 .45 1 1zm-4.02 0c0 .56-.45 1-1 1s-1-.44-1-1c0-.55.45-1 1-1s1 .45 1 1zm-4 0c0 .56-.46 1-1 1-.56 0-1-.44-1-1 0-.55.44-1 1-1 .54 0 1 .45 1 1zm-4.02 0c0 .56-.45 1-1 1s-1-.44-1-1c0-.55.45-1 1-1s1 .45 1 1zm-4 0c0 .56-.45 1-1 1-.56 0-1-.44-1-1 0-.55.44-1 1-1 .55 0 1 .45 1 1zm-4.02 0c0 .56-.44 1-1 1-.55 0-1-.44-1-1 0-.54.45-1 1-1 .56 0 1 .46 1 1zm-4 0c0 .56-.45 1-1 1-.56 0-1-.44-1-1 0-.54.44-1 1-1 .55 0 1 .46 1 1zm-4 0c0 .56-.46 1-1 1-.57 0-1-.44-1-1 0-.54.43-1 1-1 .54 0 1 .46 1 1zm-4.02 0c0 .56-.45 1-1 1-.56 0-1-.44-1-1 0-.54.44-1 1-1 .55 0 1 .46 1 1zm-4 0c0 .56-.46 1-1 1-.56 0-1-.44-1-1 0-.54.44-1 1-1 .54 0 1 .46 1 1zm-4.02 0c0 .56-.45 1-1 1s-1-.44-1-1c0-.54.45-1 1-1s1 .46 1 1zm-4 0c0 .56-.46 1-1 1-.56 0-1-.44-1-1 0-.54.44-1 1-1 .54 0 1 .46 1 1zm-4.02 0c0 .56-.45 1-1 1s-1-.44-1-1c0-.54.45-1 1-1s1 .46 1 1zm-4 0c0 .56-.46 1-1 1-.56 0-1-.44-1-1 0-.54.44-1 1-1 .54 0 1 .46 1 1zm-4.02 0c0 .56-.45 1-1 1s-1-.44-1-1c0-.54.45-1 1-1s1 .46 1 1zm-4 0c0 .56-.45 1-1 1-.56 0-1-.44-1-1 0-.54.44-1 1-1 .55 0 1 .46 1 1zm-4.02 0c0 .56-.44 1-1 1-.55 0-1-.44-1-1 0-.54.45-1 1-1 .56 0 1 .46 1 1zm-4 0c0 .56-.45 1-1 1-.56 0-1-.44-1-1 0-.54.44-1 1-1 .55 0 1 .46 1 1zm-4 0c0 .56-.46 1-1 1-.57 0-1-.44-1-1 0-.54.43-1 1-1 .54 0 1 .46 1 1zm-4.02 0c0 .56-.45 1-1 1-.56 0-1-.44-1-1 0-.54.44-1 1-1 .55 0 1 .46 1 1zm-4 0c0 .56-.46 1-1 1-.56 0-1-.44-1-1 0-.54.44-1 1-1 .54 0 1 .46 1 1zm-4.02 0c0 .57-.45 1-1 1s-1-.43-1-1c0-.54.45-1 1-1s1 .46 1 1zm-4 0c0 .57-.46 1-1 1-.56 0-1-.43-1-1 0-.54.44-1 1-1 .54 0 1 .46 1 1zm-4.02 0c0 .57-.45 1-1 1s-1-.43-1-1c0-.54.45-1 1-1s1 .46 1 1zm-4 0c0 .57-.46 1-1 1-.56 0-1-.43-1-1 0-.54.44-1 1-1 .54 0 1 .46 1 1zm-4.02 0c0 .57-.45 1-1 1s-1-.43-1-1c0-.54.45-1 1-1s1 .46 1 1zm-4 0c0 .57-.46 1-1 1-.56 0-1-.43-1-1 0-.54.44-1 1-1 .54 0 1 .46 1 1zm-4.02.02c0 .55-.44 1-1 1-.55 0-1-.45-1-1 0-.56.45-1 1-1 .56 0 1 .44 1 1zm-4 0c0 .55-.45 1-1 1-.56 0-1-.45-1-1 0-.56.44-1 1-1 .55 0 1 .44 1 1zm-4 0c0 .55-.46 1-1 1-.57 0-1-.45-1-1 0-.56.43-1 1-1 .54 0 1 .44 1 1zm-4.02 0c0 .55-.45 1-1 1-.56 0-1-.45-1-1 0-.56.44-1 1-1 .55 0 1 .44 1 1zm-4 0c0 .55-.46 1-1 1-.57 0-1-.45-1-1 0-.56.43-1 1-1 .54 0 1 .44 1 1zm-4.02 0c0 .55-.45 1-1 1s-1-.45-1-1c0-.56.45-1 1-1s1 .44 1 1zm-4 0c0 .55-.46 1-1 1-.56 0-1-.45-1-1 0-.56.44-1 1-1 .54 0 1 .44 1 1zm-4.02 0c0 .55-.45 1-1 1s-1-.45-1-1 .45-1 1-1 1 .45 1 1zm-4 0c0 .55-.46 1-1 1-.56 0-1-.45-1-1s.44-1 1-1c.54 0 1 .45 1 1zm-4.02 0c0 .55-.45 1-1 1s-1-.45-1-1 .45-1 1-1 1 .45 1 1zm-4 0c0 .55-.46 1-1 1-.56 0-1-.45-1-1s.44-1 1-1c.54 0 1 .45 1 1zm-4.02 0c0 .55-.44 1-1 1-.55 0-1-.45-1-1s.45-1 1-1c.56 0 1 .45 1 1zm-4 0c0 .55-.45 1-1 1-.56 0-1-.45-1-1s.44-1 1-1c.55 0 1 .45 1 1zm-4 0c0 .55-.46 1-1 1-.57 0-1-.45-1-1s.43-1 1-1c.54 0 1 .45 1 1zm-4.02 0c0 .55-.45 1-1 1-.56 0-1-.45-1-1s.44-1 1-1c.55 0 1 .45 1 1zm-4 0c0 .55-.46 1-1 1-.57 0-1-.45-1-1s.43-1 1-1c.54 0 1 .45 1 1zm-4.02 0c0 .55-.45 1-1 1s-1-.45-1-1 .45-1 1-1 1 .45 1 1zm-4 0c0 .55-.46 1-1 1-.56 0-1-.45-1-1s.44-1 1-1c.54 0 1 .45 1 1zm-4.02 0c0 .55-.45 1-1 1s-1-.45-1-1 .45-1 1-1 1 .45 1 1zm-4 0c0 .55-.46 1-1 1-.56 0-1-.45-1-1s.44-1 1-1c.54 0 1 .45 1 1zm-4.02 0c0 .55-.45 1-1 1s-1-.45-1-1 .45-1 1-1 1 .45 1 1zm-4 0c0 .55-.46 1-1 1-.56 0-1-.45-1-1s.44-1 1-1c.54 0 1 .45 1 1zm-4.02 0c0 .56-.44 1-1 1-.55 0-1-.44-1-1 0-.55.45-1 1-1 .56 0 1 .45 1 1zm-4 0c0 .56-.45 1-1 1-.56 0-1-.44-1-1 0-.55.44-1 1-1 .55 0 1 .45 1 1zm-4.02 0c0 .56-.44 1-1 1-.55 0-1-.44-1-1 0-.55.45-1 1-1 .56 0 1 .45 1 1zm-4 0c0 .56-.45 1-1 1-.56 0-1-.44-1-1 0-.55.44-1 1-1 .55 0 1 .45 1 1zm-4 0c0 .56-.46 1-1 1-.57 0-1-.44-1-1 0-.55.43-1 1-1 .54 0 1 .45 1 1zm-4.02 0c0 .56-.45 1-1 1s-1-.44-1-1c0-.55.45-1 1-1s1 .45 1 1zm-4 0c0 .56-.46 1-1 1-.56 0-1-.44-1-1 0-.55.44-1 1-1 .54 0 1 .45 1 1zm-4.02 0c0 .56-.45 1-1 1s-1-.44-1-1c0-.55.45-1 1-1s1 .45 1 1zm-4 0c0 .56-.46 1-1 1-.56 0-1-.44-1-1 0-.55.44-1 1-1 .54 0 1 .45 1 1zm-4.02 0c0 .56-.45 1-1 1s-1-.44-1-1c0-.55.45-1 1-1s1 .45 1 1zm-4 0c0 .56-.46 1-1 1-.56 0-1-.44-1-1 0-.55.44-1 1-1 .54 0 1 .45 1 1zm-4.02 0c0 .56-.44 1-1 1-.55 0-1-.44-1-1 0-.55.45-1 1-1 .56 0 1 .45 1 1zm-4 0c0 .56-.45 1-1 1-.56 0-1-.44-1-1 0-.55.44-1 1-1 .55 0 1 .45 1 1zm-4.02 0c0 .56-.44 1-1 1-.55 0-1-.44-1-1 0-.54.45-1 1-1 .56 0 1 .46 1 1zm-4 0c0 .56-.45 1-1 1-.56 0-1-.44-1-1 0-.54.44-1 1-1 .55 0 1 .46 1 1zm-4 0c0 .56-.46 1-1 1-.57 0-1-.44-1-1 0-.54.43-1 1-1 .54 0 1 .46 1 1zm-4.02 0c0 .56-.45 1-1 1s-1-.44-1-1c0-.54.45-1 1-1s1 .46 1 1zm-4 0c0 .56-.46 1-1 1-.56 0-1-.44-1-1 0-.54.44-1 1-1 .54 0 1 .46 1 1zm-4.02 0c0 .56-.45 1-1 1s-1-.44-1-1c0-.54.45-1 1-1s1 .46 1 1zm-4 0c0 .56-.46 1-1 1-.56 0-1-.44-1-1 0-.54.44-1 1-1 .54 0 1 .46 1 1zm-4.02 0c0 .56-.45 1-1 1s-1-.44-1-1c0-.54.45-1 1-1s1 .46 1 1zm-4 0c0 .56-.46 1-1 1-.56 0-1-.44-1-1 0-.54.44-1 1-1 .54 0 1 .46 1 1zm-4.02 0c0 .56-.44 1-1 1-.55 0-1-.44-1-1 0-.54.45-1 1-1 .56 0 1 .46 1 1zm-4 0c0 .56-.45 1-1 1-.56 0-1-.44-1-1 0-.54.44-1 1-1 .55 0 1 .46 1 1zm-4.02 0c0 .56-.44 1-1 1-.55 0-1-.44-1-1 0-.54.45-1 1-1 .56 0 1 .46 1 1zm-4 0c0 .56-.45 1-1 1-.56 0-1-.44-1-1 0-.54.44-1 1-1 .55 0 1 .46 1 1zm-4 0c0 .56-.46 1-1 1-.57 0-1-.44-1-1 0-.54.43-1 1-1 .54 0 1 .46 1 1zm-4.02 0c0 .56-.45 1-1 1-.56 0-1-.44-1-1 0-.54.44-1 1-1 .55 0 1 .46 1 1zm-4 0c0 .56-.46 1-1 1-.56 0-1-.44-1-1 0-.54.44-1 1-1 .54 0 1 .46 1 1zm-4.02 0c0 .57-.45 1-1 1s-1-.43-1-1c0-.54.45-1 1-1s1 .46 1 1zm-4 0c0 .57-.46 1-1 1-.56 0-1-.43-1-1 0-.54.44-1 1-1 .54 0 1 .46 1 1zm-4.02 0c0 .57-.45 1-1 1s-1-.43-1-1c0-.54.45-1 1-1s1 .46 1 1zm-4 0c0 .57-.46 1-1 1-.56 0-1-.43-1-1 0-.54.44-1 1-1 .54 0 1 .46 1 1zm-4.02 0c0 .57-.45 1-1 1s-1-.43-1-1c0-.54.45-1 1-1s1 .46 1 1zm-4 0c0 .57-.45 1-1 1-.56 0-1-.43-1-1 0-.54.44-1 1-1 .55 0 1 .46 1 1zm-4.02.02c0 .55-.44 1-1 1-.55 0-1-.45-1-1 0-.56.45-1 1-1 .56 0 1 .44 1 1zm-4 0c0 .55-.45 1-1 1-.56 0-1-.45-1-1 0-.56.44-1 1-1 .55 0 1 .44 1 1zm-4 0c0 .55-.46 1-1 1-.57 0-1-.45-1-1 0-.56.43-1 1-1 .54 0 1 .44 1 1zm-4.02 0c0 .55-.45 1-1 1-.56 0-1-.45-1-1 0-.56.44-1 1-1 .55 0 1 .44 1 1zm-4 0c0 .55-.46 1-1 1-.56 0-1-.45-1-1 0-.56.44-1 1-1 .54 0 1 .44 1 1zm-4.02 0c0 .55-.45 1-1 1s-1-.45-1-1c0-.56.45-1 1-1s1 .44 1 1zm-4 0c0 .55-.46 1-1 1-.56 0-1-.45-1-1 0-.56.44-1 1-1 .54 0 1 .44 1 1zm-4.02 0c0 .55-.45 1-1 1s-1-.45-1-1 .45-1 1-1 1 .45 1 1zm-4 0c0 .55-.46 1-1 1-.56 0-1-.45-1-1s.44-1 1-1c.54 0 1 .45 1 1zm-4.02 0c0 .55-.45 1-1 1s-1-.45-1-1 .45-1 1-1 1 .45 1 1zm-4 0c0 .55-.45 1-1 1-.56 0-1-.45-1-1s.44-1 1-1c.55 0 1 .45 1 1zm-4.02 0c0 .55-.44 1-1 1-.55 0-1-.45-1-1s.45-1 1-1c.56 0 1 .45 1 1zm-4 0c0 .55-.45 1-1 1-.56 0-1-.45-1-1s.44-1 1-1c.55 0 1 .45 1 1zm-4 0c0 .55-.46 1-1 1-.57 0-1-.45-1-1s.43-1 1-1c.54 0 1 .45 1 1zm-4.02 0c0 .55-.45 1-1 1-.56 0-1-.45-1-1s.44-1 1-1c.55 0 1 .45 1 1zm-4 0c0 .55-.46 1-1 1-.56 0-1-.45-1-1s.44-1 1-1c.54 0 1 .45 1 1zm-4.02 0c0 .55-.45 1-1 1s-1-.45-1-1 .45-1 1-1 1 .45 1 1zm-4 0c0 .55-.46 1-1 1-.56 0-1-.45-1-1s.44-1 1-1c.54 0 1 .45 1 1zm-4.02 0c0 .55-.45 1-1 1s-1-.45-1-1 .45-1 1-1 1 .45 1 1zm-4 0c0 .55-.46 1-1 1-.56 0-1-.45-1-1s.44-1 1-1c.54 0 1 .45 1 1zm-4.02 0c0 .55-.45 1-1 1s-1-.45-1-1 .45-1 1-1 1 .45 1 1zm-4 0c0 .55-.45 1-1 1-.56 0-1-.45-1-1s.44-1 1-1c.55 0 1 .45 1 1zm-4.02 0c0 .56-.44 1-1 1-.55 0-1-.44-1-1 0-.55.45-1 1-1 .56 0 1 .45 1 1zm-4 0c0 .56-.45 1-1 1-.56 0-1-.44-1-1 0-.55.44-1 1-1 .55 0 1 .45 1 1zm-4 0c0 .56-.46 1-1 1-.57 0-1-.44-1-1 0-.55.43-1 1-1 .54 0 1 .45 1 1zm-4.02 0c0 .56-.45 1-1 1-.56 0-1-.44-1-1 0-.55.44-1 1-1 .55 0 1 .45 1 1zm-4 0c0 .56-.46 1-1 1-.56 0-1-.44-1-1 0-.55.44-1 1-1 .54 0 1 .45 1 1zm-4.02 0c0 .56-.45 1-1 1s-1-.44-1-1c0-.55.45-1 1-1s1 .45 1 1zm-4 0c0 .56-.46 1-1 1-.56 0-1-.44-1-1 0-.55.44-1 1-1 .54 0 1 .45 1 1zm-4.02 0c0 .56-.45 1-1 1s-1-.44-1-1c0-.55.45-1 1-1s1 .45 1 1zm-4 0c0 .56-.46 1-1 1-.56 0-1-.44-1-1 0-.55.44-1 1-1 .54 0 1 .45 1 1zm-4.02 0c0 .56-.45 1-1 1s-1-.44-1-1c0-.55.45-1 1-1s1 .45 1 1zm-4 0c0 .56-.45 1-1 1-.56 0-1-.44-1-1 0-.55.44-1 1-1 .55 0 1 .45 1 1zm-4.02 0c0 .56-.44 1-1 1-.55 0-1-.44-1-1 0-.55.45-1 1-1 .56 0 1 .45 1 1zm-4 0c0 .56-.45 1-1 1-.56 0-1-.44-1-1 0-.55.44-1 1-1 .55 0 1 .45 1 1zm-4 0c0 .56-.46 1-1 1-.57 0-1-.44-1-1 0-.54.43-1 1-1 .54 0 1 .46 1 1zm-4.02 0c0 .56-.45 1-1 1-.56 0-1-.44-1-1 0-.54.44-1 1-1 .55 0 1 .46 1 1zm-4 0c0 .56-.46 1-1 1-.56 0-1-.44-1-1 0-.54.44-1 1-1 .54 0 1 .46 1 1zm-4.02 0c0 .56-.45 1-1 1s-1-.44-1-1c0-.54.45-1 1-1s1 .46 1 1zm-4 0c0 .56-.46 1-1 1-.56 0-1-.44-1-1 0-.54.44-1 1-1 .54 0 1 .46 1 1zm-4.02 0c0 .56-.45 1-1 1s-1-.44-1-1c0-.54.45-1 1-1s1 .46 1 1zm-3.88-1.44c0 .55-.45 1-1 1-.56 0-1-.45-1-1s.44-1 1-1c.55 0 1 .45 1 1zm-2.05-3.6c0 .54-.44 1-1 1-.55 0-1-.46-1-1 0-.56.45-1 1-1 .56 0 1 .44 1 1zm0-4.04c0 .56-.45 1-1 1s-1-.44-1-1c0-.55.45-1 1-1s1 .45 1 1zm0-4.02c0 .55-.45 1-1 1s-1-.45-1-1 .45-1 1-1 1 .45 1 1zm0-4.02c0 .55-.45 1-1 1s-1-.45-1-1c0-.56.45-1 1-1s1 .44 1 1zm0-4.03c0 .55-.45 1-1 1-.56 0-1-.45-1-1s.44-1 1-1c.55 0 1 .45 1 1zm0-4.02c0 .55-.45 1-1 1-.56 0-1-.45-1-1s.44-1 1-1c.55 0 1 .45 1 1zm0-4.03c0 .56-.46 1-1 1-.56 0-1-.44-1-1 0-.55.44-1 1-1 .54 0 1 .45 1 1zm0-4.02c0 .55-.46 1-1 1-.56 0-1-.45-1-1s.44-1 1-1c.54 0 1 .45 1 1zm0-4.02c0 .55-.46 1-1 1-.56 0-1-.45-1-1 0-.56.44-1 1-1 .54 0 1 .44 1 1zm0-4.03c0 .55-.46 1-1 1-.57 0-1-.45-1-1s.43-1 1-1c.54 0 1 .45 1 1zm-.02-4.02c0 .55-.44 1-1 1-.55 0-1-.45-1-1s.45-1 1-1c.56 0 1 .45 1 1zm0-4.03c0 .56-.44 1-1 1-.55 0-1-.44-1-1 0-.55.45-1 1-1 .56 0 1 .45 1 1zm0-4.02c0 .55-.45 1-1 1s-1-.45-1-1 .45-1 1-1 1 .45 1 1zm0-4.02c0 .55-.45 1-1 1s-1-.45-1-1c0-.56.45-1 1-1s1 .44 1 1zm0-4.03c0 .55-.45 1-1 1s-1-.45-1-1 .45-1 1-1 1 .45 1 1zm0-4.02c0 .56-.45 1-1 1-.56 0-1-.44-1-1 0-.54.44-1 1-1 .55 0 1 .46 1 1zm0-4.02c0 .56-.45 1-1 1-.56 0-1-.44-1-1 0-.55.44-1 1-1 .55 0 1 .45 1 1zm0-4.02c0 .55-.46 1-1 1-.56 0-1-.45-1-1s.44-1 1-1c.54 0 1 .45 1 1zm0-4.02c0 .55-.46 1-1 1-.56 0-1-.45-1-1 0-.56.44-1 1-1 .54 0 1 .44 1 1zm0-4.03c0 .56-.46 1-1 1-.56 0-1-.44-1-1 0-.54.44-1 1-1 .54 0 1 .46 1 1zm0-4c0 .54-.46 1-1 1-.57 0-1-.46-1-1 0-.56.43-1 1-1 .54 0 1 .44 1 1zm-.02-4.04c0 .56-.44 1-1 1-.55 0-1-.44-1-1 0-.55.45-1 1-1 .56 0 1 .45 1 1zm0-4.02c0 .55-.45 1-1 1s-1-.45-1-1 .45-1 1-1 1 .45 1 1zm0-4.02c0 .55-.45 1-1 1s-1-.45-1-1c0-.56.45-1 1-1s1 .44 1 1zm0-4.03c0 .54-.45 1-1 1s-1-.46-1-1c0-.56.45-1 1-1s1 .44 1 1zm0-4.03c0 .55-.45 1-1 1-.56 0-1-.45-1-1s.44-1 1-1c.55 0 1 .45 1 1zm0-4.03c0 .56-.45 1-1 1-.56 0-1-.44-1-1 0-.55.44-1 1-1 .55 0 1 .45 1 1zm0-4.02c0 .55-.45 1-1 1-.56 0-1-.45-1-1s.44-1 1-1c.55 0 1 .45 1 1zm0-4.02c0 .55-.46 1-1 1-.56 0-1-.45-1-1 0-.56.44-1 1-1 .54 0 1 .44 1 1zm0-4.03c0 .56-.46 1-1 1-.56 0-1-.44-1-1 0-.55.44-1 1-1 .54 0 1 .45 1 1zm0-4.02c0 .55-.46 1-1 1-.57 0-1-.45-1-1s.43-1 1-1c.54 0 1 .45 1 1zm0-4.03c0 .56-.46 1-1 1-.57 0-1-.44-1-1 0-.55.43-1 1-1 .54 0 1 .45 1 1zm-.02-4.02c0 .55-.43 1-1 1-.54 0-1-.45-1-1s.46-1 1-1c.57 0 1 .45 1 1zm0-4.02c0 .55-.44 1-1 1-.54 0-1-.45-1-1 0-.56.46-1 1-1 .56 0 1 .44 1 1zm0-4.03c0 .56-.44 1-1 1-.54 0-1-.44-1-1 0-.55.46-1 1-1 .56 0 1 .45 1 1zm0-4.02c0 .55-.44 1-1 1-.54 0-1-.45-1-1s.46-1 1-1c.56 0 1 .45 1 1zm0-4.02c0 .56-.44 1-1 1-.55 0-1-.44-1-1 0-.55.45-1 1-1 .56 0 1 .45 1 1zm0-4.02c0 .55-.44 1-1 1-.55 0-1-.45-1-1s.45-1 1-1c.56 0 1 .45 1 1zm0-4.02c0 .55-.45 1-1 1s-1-.45-1-1c0-.56.45-1 1-1s1 .44 1 1z" fill="#4c535d"/><path d="M692.3 482.63a6 6 0 0 1 6-6H992.1a6 6 0 0 1 6 6v184a6 6 0 0 1-6 6H698.3a6 6 0 0 1-6-6z" fill="#fff"/><path d="M696.02 477.1l.43-.18.92-.22h1.96m7.86 0h3.92m7.86 0h3.93m7.87 0h3.93m7.86 0h3.93m7.85 0h3.93m7.85-.02h3.93m7.86 0h3.93m7.86 0h3.94m7.86 0h3.93m7.86 0h3.92m7.86 0H829m7.87 0h3.93m7.85-.02h3.93m7.86 0h3.93m7.86 0h3.93m7.86 0h3.93m7.86 0h3.94m7.86 0h3.93m7.86 0l3.92-.02m7.85 0h3.93m7.86 0h3.93m7.85 0h3.93m7.86 0h3.93m7.86 0h3.93m7.86 0h1.96l.94.06.46.1m4.13 3.54l.2.43.2.92v2.04m0 8.22v4.1m.02 8.23v4.1m0 8.22v4.1m0 8.23v4.1m0 8.23v4.1m.02 8.23v4.12m0 8.22v4.1m0 8.23v4.1m0 8.22v4.1m.02 8.22v4.1m0 8.23v4.1m0 8.23v4.1m0 8.23v4.12m.02 8.22v4.1m0 8.23v2.05l-.07.94-.1.46m-3.53 4.13l-.43.18-.92.22h-1.96m-7.86 0h-3.93m-7.86 0h-3.92m-7.86 0h-3.93m-7.87 0h-3.93m-7.86 0h-3.93m-7.85.02h-3.93m-7.85 0h-3.93m-7.86 0h-3.93m-7.86 0h-3.94m-7.86 0h-3.93m-7.86 0h-3.92m-7.86 0h-3.93m-7.87.02h-3.93m-7.85 0h-3.93m-7.86 0h-3.93m-7.86 0h-3.93m-7.86 0h-3.93m-7.86 0h-3.94m-7.86 0h-3.93m-7.86 0h-3.92m-7.85 0h-3.93m-7.86 0h-3.93m-7.85.02h-3.93m-7.86 0h-3.93m-7.86 0h-1.96l-.93-.07-.46-.1m-4.12-3.54l-.18-.42-.22-.92v-2.05m0-8.2v-4.12m0-8.22v-4.1m0-8.23v-4.1m-.02-8.23v-4.1m0-8.23v-4.1m0-8.23v-4.1m0-8.23v-4.1m-.02-8.22v-4.1m0-8.22v-4.1m0-8.23v-4.1m0-8.23v-4.1m-.02-8.23v-4.1m0-8.23v-4.1m0-8.23v-4.1m0-8.22v-2.05l.06-.94.1-.47" stroke="#e81313" stroke-width="2" fill="none"/><path d="M235.46 680.68h966.8" stroke="#3a414a" stroke-width="3" fill="none"/><path d="M235.5 682.18h-1.53v-3h1.53z" stroke="#3a414a" stroke-width=".05" fill="#3a414a"/><path d="M1218.04 680.68l-14.27 4.63v-9.26z" stroke="#3a414a" stroke-width="3" fill="#3a414a"/><path d="M82 656.67a6 6 0 0 1 6-6h140a6 6 0 0 1 6 6v48a6 6 0 0 1-6 6H88a6 6 0 0 1-6-6z" stroke="#000" stroke-opacity="0" fill="#fff" fill-opacity="0"/><use xlink:href="#a" transform="matrix(1,0,0,1,86.99999999996112,655.6666666667053) translate(41.455555555555556 30.27777777777778)"/><path d="M295 679.67a.5.5 0 0 1 .5.5V719a.5.5 0 0 1-.5.5.5.5 0 0 1-.5-.5v-38.83a.5.5 0 0 1 .5-.5zM522.5 682a.5.5 0 0 1 .5.5v38.1a.5.5 0 0 1-.5.5.5.5 0 0 1-.5-.5v-38.1a.5.5 0 0 1 .5-.5zM751 683.6a.5.5 0 0 1 .5.5v36.5a.5.5 0 0 1-.5.5.5.5 0 0 1-.5-.5v-36.5a.5.5 0 0 1 .5-.5zM977.67 682a.5.5 0 0 1 .5.5v38.1a.5.5 0 0 1-.5.5.5.5 0 0 1-.5-.5v-38.1a.5.5 0 0 1 .5-.5z" stroke="#3a414a" fill="none"/><path d="M232.75 726.5a6 6 0 0 1 6-6h112.5a6 6 0 0 1 6 6v48a6 6 0 0 1-6 6h-112.5a6 6 0 0 1-6-6z" stroke="#000" stroke-opacity="0" fill="#fff" fill-opacity="0"/><use xlink:href="#b" transform="matrix(1,0,0,1,237.749999999961,725.4999999999998) translate(49.51111111111111 30.27777777777778)"/><path d="M460.25 727.6a6 6 0 0 1 6-6h112.5a6 6 0 0 1 6 6v48a6 6 0 0 1-6 6h-112.5a6 6 0 0 1-6-6z" stroke="#000" stroke-opacity="0" fill="#fff" fill-opacity="0"/><use xlink:href="#c" transform="matrix(1,0,0,1,465.25,726.5999999999999) translate(41.022222222222226 30.27777777777778)"/><path d="M687.75 727.6a6 6 0 0 1 6-6h112.5a6 6 0 0 1 6 6v48a6 6 0 0 1-6 6h-112.5a6 6 0 0 1-6-6z" stroke="#000" stroke-opacity="0" fill="#fff" fill-opacity="0"/><use xlink:href="#d" transform="matrix(1,0,0,1,692.750000000039,726.5999999999997) translate(37.044444444444444 30.27777777777778)"/><path d="M920.25 726.5a6 6 0 0 1 6-6h112.5a6 6 0 0 1 6 6v48a6 6 0 0 1-6 6h-112.5a6 6 0 0 1-6-6z" stroke="#000" stroke-opacity="0" fill="#fff" fill-opacity="0"/><use xlink:href="#e" transform="matrix(1,0,0,1,925.25,725.4999999999998) translate(36.233333333333334 30.27777777777778)"/><path d="M268.56 388.88a6 6 0 0 1 6-6h234.38a6 6 0 0 1 6 6v14.47a6 6 0 0 1-6 6H274.56a6 6 0 0 1-6-6z" stroke="#000" stroke-opacity="0" fill="#fff" fill-opacity="0"/><use xlink:href="#f" transform="matrix(1,0,0,1,273.5561617458668,387.8796296530241) translate(51.860000000000014 15.284722222222221)"/><use xlink:href="#g" transform="matrix(1,0,0,1,273.5561617458668,387.8796296530241) translate(115.93111111111112 15.284722222222221)"/><path d="M391.76 409.8l.06 2.06.2 2.37.32 2.24.42 2.13.53 2.05.62 2 .75 1.94.86 1.93 1 1.93 1.15 1.95 1.34 2 1.57 2.1 1.86 2.2 2.28 2.43 2.93 2.76 4.1 3.43 8.4 6.27 14.94 10.87 4.1 3.45 2.93 2.76 2.28 2.4 1.88 2.23 1.57 2.1 1.34 2 1.14 1.95 1 1.93.57 1.27" stroke="#3a414a" stroke-linejoin="round" fill="none"/><path d="M392.26 409.8l-1 .04v-.53h1z" stroke="#3a414a" stroke-width=".05" fill="#3a414a"/><path d="M454.8 496.9l-7.36-13.07 9.1-1.83z" stroke="#3a414a" fill="#3a414a"/><path d="M591.5 388.88a6 6 0 0 1 6-6h234.4a6 6 0 0 1 6 6v14.47a6 6 0 0 1-6 6H597.5a6 6 0 0 1-6-6z" stroke="#000" stroke-opacity="0" fill="#fff" fill-opacity="0"/><use xlink:href="#h" transform="matrix(1,0,0,1,596.5072475396487,387.8796296530241) translate(79.22 15.284722222222221)"/><path d="M714.7 409.8v.04l.04.5.06.52.07.5.1.5.1.5.15.5.17.5.18.5.2.52.26.52.27.54.33.54.35.56.4.57.46.6.5.64.6.65.68.68.77.72.9.78 1.04.83 1.24.9 1.48 1 1.8 1.07 2.18 1.2 2.76 1.38 3.57 1.58 4.82 1.9 6.96 2.42 11.97 3.58 53.6 14.5 6.98 2.42 4.82 1.9 3.57 1.58 2.75 1.37 2.2 1.2 1.8 1.1 1.46.97.45.3" stroke="#3a414a" stroke-linejoin="round" fill="none"/><path d="M715.2 409.82l-1 .02v-.53h1z" stroke="#3a414a" stroke-width=".05" fill="#3a414a"/><path d="M844.33 474.3l-11.57-9.55 7.82-4.98z" stroke="#3a414a" fill="#3a414a"/><path d="M272.75 539.73a9.42 9.42 0 0 1 0-10.12l6.3-9.87a10.93 10.93 0 0 1 9.22-5.06h13.46a10.93 10.93 0 0 1 9.23 5.06l6.3 9.88a9.42 9.42 0 0 1 0 10.13l-6.3 9.88a10.93 10.93 0 0 1-9.23 5.07h-13.46a10.93 10.93 0 0 1-9.23-5.06zM333.7 539.73a9.42 9.42 0 0 1 0-10.12l6.28-9.87a10.93 10.93 0 0 1 9.22-5.06h13.47a10.93 10.93 0 0 1 9.22 5.06l6.28 9.88a9.42 9.42 0 0 1 0 10.13l-6.3 9.88a10.93 10.93 0 0 1-9.2 5.07H349.2a10.93 10.93 0 0 1-9.22-5.06zM394.63 539.73a9.42 9.42 0 0 1 0-10.12l6.3-9.87a10.93 10.93 0 0 1 9.2-5.06h13.48a10.93 10.93 0 0 1 9.23 5.06l6.3 9.88a9.42 9.42 0 0 1 0 10.13l-6.3 9.88a10.93 10.93 0 0 1-9.22 5.07h-13.46a10.93 10.93 0 0 1-9.22-5.06zM455.57 539.73a9.42 9.42 0 0 1 0-10.12l6.3-9.87a10.93 10.93 0 0 1 9.2-5.06h13.48a10.93 10.93 0 0 1 9.22 5.06l6.3 9.88a9.42 9.42 0 0 1 0 10.13l-6.3 9.88a10.93 10.93 0 0 1-9.22 5.07h-13.47a10.93 10.93 0 0 1-9.22-5.06zM516.5 539.73a9.42 9.42 0 0 1 0-10.12l6.3-9.87a10.93 10.93 0 0 1 9.22-5.06h13.47a10.93 10.93 0 0 1 9.2 5.06l6.3 9.88a9.42 9.42 0 0 1 0 10.13l-6.3 9.88a10.93 10.93 0 0 1-9.2 5.07H532a10.93 10.93 0 0 1-9.23-5.06zM577.44 539.73a9.42 9.42 0 0 1 0-10.12l6.3-9.87a10.93 10.93 0 0 1 9.2-5.06h13.48a10.93 10.93 0 0 1 9.23 5.06l6.28 9.88a9.42 9.42 0 0 1 0 10.13l-6.28 9.88a10.93 10.93 0 0 1-9.23 5.07h-13.47a10.93 10.93 0 0 1-9.22-5.06zM638.38 539.73a9.42 9.42 0 0 1 0-10.12l6.3-9.87a10.93 10.93 0 0 1 9.2-5.06h13.48a10.93 10.93 0 0 1 9.22 5.06l6.3 9.88a9.42 9.42 0 0 1 0 10.13l-6.3 9.88a10.93 10.93 0 0 1-9.22 5.07H653.9a10.93 10.93 0 0 1-9.23-5.06zM699.32 539.73a9.42 9.42 0 0 1 0-10.12l6.3-9.87a10.93 10.93 0 0 1 9.2-5.06h13.48a10.93 10.93 0 0 1 9.22 5.06l6.3 9.88a9.42 9.42 0 0 1 0 10.13l-6.3 9.88a10.93 10.93 0 0 1-9.22 5.07h-13.47a10.93 10.93 0 0 1-9.22-5.06zM333.7 602.64a9.42 9.42 0 0 1 0-10.12l6.28-9.88a10.93 10.93 0 0 1 9.22-5.06h13.47a10.93 10.93 0 0 1 9.22 5.06l6.28 9.88a9.42 9.42 0 0 1 0 10.12l-6.3 9.88a10.93 10.93 0 0 1-9.2 5.06H349.2a10.93 10.93 0 0 1-9.22-5.06zM943.07 539.73a9.42 9.42 0 0 1 0-10.12l6.3-9.87a10.93 10.93 0 0 1 9.2-5.06h13.48a10.93 10.93 0 0 1 9.22 5.06l6.3 9.88a9.42 9.42 0 0 1 0 10.13l-6.3 9.88a10.93 10.93 0 0 1-9.22 5.07h-13.47a10.93 10.93 0 0 1-9.22-5.06zM882.13 539.73a9.42 9.42 0 0 1 0-10.12l6.3-9.87a10.93 10.93 0 0 1 9.2-5.06h13.48a10.93 10.93 0 0 1 9.23 5.06l6.3 9.88a9.42 9.42 0 0 1 0 10.13l-6.3 9.88a10.93 10.93 0 0 1-9.22 5.07h-13.46a10.93 10.93 0 0 1-9.22-5.06zM272.75 602.64a9.42 9.42 0 0 1 0-10.12l6.3-9.88a10.93 10.93 0 0 1 9.22-5.06h13.46a10.93 10.93 0 0 1 9.23 5.06l6.3 9.88a9.42 9.42 0 0 1 0 10.12l-6.3 9.88a10.93 10.93 0 0 1-9.23 5.06h-13.46a10.93 10.93 0 0 1-9.23-5.06zM1004 539.73a9.42 9.42 0 0 1 0-10.12l6.3-9.87a10.93 10.93 0 0 1 9.22-5.06H1033a10.93 10.93 0 0 1 9.2 5.06l6.3 9.88a9.42 9.42 0 0 1 0 10.13l-6.3 9.88a10.93 10.93 0 0 1-9.2 5.07h-13.48a10.93 10.93 0 0 1-9.22-5.06zM760.26 539.73a9.42 9.42 0 0 1 0-10.12l6.28-9.87a10.93 10.93 0 0 1 9.23-5.06h13.47a10.93 10.93 0 0 1 9.22 5.06l6.3 9.88a9.42 9.42 0 0 1 0 10.13l-6.3 9.88a10.93 10.93 0 0 1-9.22 5.07h-13.47a10.93 10.93 0 0 1-9.23-5.06zM821.2 539.73a9.42 9.42 0 0 1 0-10.12l6.28-9.87a10.93 10.93 0 0 1 9.22-5.06h13.47a10.93 10.93 0 0 1 9.23 5.06l6.3 9.88a9.42 9.42 0 0 1 0 10.13l-6.3 9.88a10.93 10.93 0 0 1-9.23 5.07H836.7a10.93 10.93 0 0 1-9.22-5.06zM454.43 602.64a9.42 9.42 0 0 1 0-10.12l6.3-9.88a10.93 10.93 0 0 1 9.2-5.06h13.48a10.93 10.93 0 0 1 9.24 5.06l6.28 9.88a9.42 9.42 0 0 1 0 10.12l-6.28 9.88a10.93 10.93 0 0 1-9.23 5.06h-13.46a10.93 10.93 0 0 1-9.22-5.06zM518.17 602.64a9.42 9.42 0 0 1 0-10.12l6.3-9.88a10.93 10.93 0 0 1 9.2-5.06h13.48a10.93 10.93 0 0 1 9.22 5.06l6.3 9.88a9.42 9.42 0 0 1 0 10.12l-6.3 9.88a10.93 10.93 0 0 1-9.22 5.06h-13.47a10.93 10.93 0 0 1-9.22-5.06zM577.44 603.2a9.42 9.42 0 0 1 0-10.13l6.3-9.88a10.93 10.93 0 0 1 9.2-5.07h13.48a10.93 10.93 0 0 1 9.23 5.06l6.28 9.87a9.42 9.42 0 0 1 0 10.12l-6.28 9.87a10.93 10.93 0 0 1-9.23 5.06h-13.47a10.93 10.93 0 0 1-9.22-5.06zM699.32 602.64a9.42 9.42 0 0 1 0-10.12l6.3-9.88a10.93 10.93 0 0 1 9.2-5.06h13.48a10.93 10.93 0 0 1 9.22 5.06l6.3 9.88a9.42 9.42 0 0 1 0 10.12l-6.3 9.88a10.93 10.93 0 0 1-9.22 5.06h-13.47a10.93 10.93 0 0 1-9.22-5.06zM760.26 602.64a9.42 9.42 0 0 1 0-10.12l6.28-9.88a10.93 10.93 0 0 1 9.23-5.06h13.47a10.93 10.93 0 0 1 9.22 5.06l6.3 9.88a9.42 9.42 0 0 1 0 10.12l-6.3 9.88a10.93 10.93 0 0 1-9.22 5.06h-13.47a10.93 10.93 0 0 1-9.23-5.06zM822.95 602.64a9.42 9.42 0 0 1 0-10.12l6.3-9.88a10.93 10.93 0 0 1 9.2-5.06h13.48a10.93 10.93 0 0 1 9.22 5.06l6.3 9.88a9.42 9.42 0 0 1 0 10.12l-6.3 9.88a10.93 10.93 0 0 1-9.22 5.06h-13.47a10.93 10.93 0 0 1-9.22-5.06zM882.13 602.64a9.42 9.42 0 0 1 0-10.12l6.3-9.88a10.93 10.93 0 0 1 9.2-5.06h13.48a10.93 10.93 0 0 1 9.23 5.06l6.3 9.88a9.42 9.42 0 0 1 0 10.12l-6.3 9.88a10.93 10.93 0 0 1-9.22 5.06h-13.46a10.93 10.93 0 0 1-9.22-5.06zM1004 602.64a9.42 9.42 0 0 1 0-10.12l6.3-9.88a10.93 10.93 0 0 1 9.22-5.06H1033a10.93 10.93 0 0 1 9.2 5.06l6.3 9.88a9.42 9.42 0 0 1 0 10.12l-6.3 9.88a10.93 10.93 0 0 1-9.2 5.06h-13.48a10.93 10.93 0 0 1-9.22-5.06zM1064.94 539.73a9.42 9.42 0 0 1 0-10.12l6.3-9.87a10.93 10.93 0 0 1 9.22-5.06h13.46a10.93 10.93 0 0 1 9.23 5.06l6.3 9.88a9.42 9.42 0 0 1 0 10.13l-6.3 9.88a10.93 10.93 0 0 1-9.23 5.07h-13.46a10.93 10.93 0 0 1-9.23-5.06zM1063.27 602.64a9.42 9.42 0 0 1 0-10.12l6.3-9.88a10.93 10.93 0 0 1 9.2-5.06h13.48a10.93 10.93 0 0 1 9.22 5.06l6.3 9.88a9.42 9.42 0 0 1 0 10.12l-6.3 9.88a10.93 10.93 0 0 1-9.22 5.06h-13.47a10.93 10.93 0 0 1-9.22-5.06zM640.03 602.64a9.42 9.42 0 0 1 0-10.12l6.3-9.88a10.93 10.93 0 0 1 9.22-5.06h13.47a10.93 10.93 0 0 1 9.22 5.06l6.3 9.88a9.42 9.42 0 0 1 0 10.12l-6.3 9.88a10.93 10.93 0 0 1-9.22 5.06h-13.47a10.93 10.93 0 0 1-9.23-5.06zM394.63 602.64a9.42 9.42 0 0 1 0-10.12l6.3-9.88a10.93 10.93 0 0 1 9.2-5.06h13.48a10.93 10.93 0 0 1 9.23 5.06l6.3 9.88a9.42 9.42 0 0 1 0 10.12l-6.3 9.88a10.93 10.93 0 0 1-9.22 5.06h-13.46a10.93 10.93 0 0 1-9.22-5.06zM943.07 602.64a9.42 9.42 0 0 1 0-10.12l6.3-9.88a10.93 10.93 0 0 1 9.2-5.06h13.48a10.93 10.93 0 0 1 9.22 5.06l6.3 9.88a9.42 9.42 0 0 1 0 10.12l-6.3 9.88a10.93 10.93 0 0 1-9.22 5.06h-13.47a10.93 10.93 0 0 1-9.22-5.06z" stroke="#000" fill="#6db1ff"/><defs><path fill="#3a414a" d="M382-556c-3 158-18 304-18 470 0 31 6 72-21 86-20 35-87 21-104-6-1-188 14-367 23-549 1-24 13-80-17-80-77 0-131 31-210 31-15-10-43-18-33-45 0-82 83-94 148-109 103-23 215-12 315-40 43-12 91-17 142-23 62-8 95 53 77 116-8 28-47 14-75 18-68 9-134 10-195 30-32 11-31 60-32 101" id="i"/><path fill="#3a414a" d="M292-638c-67 2-113 14-176 21-81 9-112-68-58-103 132-46 304-52 470-66l65 5c50 52 43 111-50 111-45 0-75 15-112 18-18 16-19 83-24 152-7 108-21 214-33 322-5 46 36 20 67 20 54 0 81-10 139-16 43 25 50 62 23 110-151 29-311 50-490 79C58 24-8 22 3-44c14-83 161-45 224-90 22-16 24-69 29-107 17-126 33-258 36-397" id="j"/><path fill="#3a414a" d="M629-645c28 177 9 401 28 582 3 29-18 50-47 50-97 0-67-194-71-306-1-24-4-66-3-92 1-39-15-57-30-33-49 79-88 161-139 243-9 15-21 23-34 23-33 0-70-69-89-115-10-23-57-152-73-152-28 0-27 119-31 162-9 93-16 174-27 265-2 3-35 21-48 20-71-3-50-117-43-176 24-211 38-410 84-595 39-67 121 2 138 59 22 73 63 167 84 249 7 23 13 34 20 34 17 0 54-75 107-225 17-48 42-155 115-96 31 25 52 57 59 103" id="k"/><path fill="#3a414a" d="M330-158c82-22 193-18 286-31 38 11 58 81 24 113-25 24-71 25-116 25-135 0-238 34-358 47C61 7 4-52 15-159c12-113 37-213 32-340-2-59 2-121-2-178-2-44 35-62 81-61 104-31 222-52 345-64 68-7 103 34 111 94 2 12-3 22-9 31-33 14-62 15-103 16-100 2-196 10-270 40h-8c-18 23-11 79-15 106-1 13 5 22 16 25 82-10 176-25 264-12 44 7 78 26 71 72-7 49-76 30-125 30-78 0-138 22-210 29-24 1-35 28-36 52-2 41-10 83-8 126-19 84 122 51 181 35" id="l"/><g id="a"><use transform="matrix(0.022222222222222223,0,0,0.022222222222222223,0,0)" xlink:href="#i"/><use transform="matrix(0.022222222222222223,0,0,0.022222222222222223,15.244444444444445,0)" xlink:href="#j"/><use transform="matrix(0.022222222222222223,0,0,0.022222222222222223,29.355555555555558,0)" xlink:href="#k"/><use transform="matrix(0.022222222222222223,0,0,0.022222222222222223,44.28888888888889,0)" xlink:href="#l"/></g><path fill="#3a414a" d="M593-790c58 0 99 54 77 117-5 13-15 16-35 14-70-7-152-3-229 7-31 20-24 81-26 127-4 138-16 277-16 422 0 32 4 70-21 83-26 36-88 7-103-20 1-182 10-346 21-521 2-27 11-81-18-84-73-7-138 11-206 3-20-18-39-18-32-51-3-78 74-91 145-91 129 0 251 6 369-8 25-3 49 2 74 2" id="m"/><use transform="matrix(0.022222222222222223,0,0,0.022222222222222223,0,0)" xlink:href="#m" id="b"/><path fill="#3a414a" d="M247-706c69-7 55 87 47 144 7 36 7 40 59 43 50 3 122-1 122 59 0 38-26 67-57 68-54 2-108-13-130 27-29 34-30 125-56 158-43 28-93 0-87-69-5-35 30-117-28-110-65 8-119-7-115-66 3-51 46-54 113-53 79 2 72-25 75-84 4-71 5-112 57-117" id="n"/><path fill="#3a414a" d="M49-77C44-40 70-4 106-4c52 0 58-115 69-176 33-185 88-339 106-531 5-55-37-120-88-84-58 41-108 94-156 139-9 8-27 43-27 58-1 28 35 54 60 54 15-1 48-23 43 15" id="o"/><g id="c"><use transform="matrix(0.022222222222222223,0,0,0.022222222222222223,0,0)" xlink:href="#m"/><use transform="matrix(0.022222222222222223,0,0,0.022222222222222223,15.977777777777778,0)" xlink:href="#n"/><use transform="matrix(0.022222222222222223,0,0,0.022222222222222223,26.666666666666668,0)" xlink:href="#o"/></g><path fill="#3a414a" d="M489-785c107 0 154 111 116 214-29 79-213 255-300 345-26 27-38 39-16 63 95 2 204-5 287 7 22 4 49 51 49 77 0 63-95 31-141 31H320C244-52 124 2 73 14 50 19-1-26 3-53c6-51 111-140 150-182 94-98 182-189 275-285 55-57 80-102 80-129 1-31-28-24-56-21-120 11-265 81-296 145-13 26-15 67-56 65s-51-21-51-66c0-144 158-200 287-235 61-16 112-24 153-24" id="p"/><g id="d"><use transform="matrix(0.022222222222222223,0,0,0.022222222222222223,0,0)" xlink:href="#m"/><use transform="matrix(0.022222222222222223,0,0,0.022222222222222223,15.977777777777778,0)" xlink:href="#n"/><use transform="matrix(0.022222222222222223,0,0,0.022222222222222223,26.666666666666668,0)" xlink:href="#p"/></g><path fill="#3a414a" d="M694-661c-2 64-88 115-111 165 1 17 42 36 59 47 42 29 76 115 53 188-30 95-82 137-179 194C386 10 245 0 121-52 96-78 5-94 12-147c-3-30 39-60 66-58 10-5 95 37 147 52 50 14 141 11 184-13 64-35 159-87 167-152 7-58-74-71-141-61-44 7-88 21-136 26-61 7-96-80-43-117 65-45 147-89 217-133 33-21 50-38 50-49 0-57-104-57-169-46-78 14-147 44-200 90-12 10-25 23-51 23-35 0-77-40-55-77 74-122 237-149 435-148 101 1 214 52 211 149" id="q"/><g id="e"><use transform="matrix(0.022222222222222223,0,0,0.022222222222222223,0,0)" xlink:href="#m"/><use transform="matrix(0.022222222222222223,0,0,0.022222222222222223,15.977777777777778,0)" xlink:href="#n"/><use transform="matrix(0.022222222222222223,0,0,0.022222222222222223,26.666666666666668,0)" xlink:href="#q"/></g><path fill="#3a414a" d="M330-158c82-22 193-18 286-31 38 11 58 81 24 113-25 24-71 25-116 25-135 0-238 34-358 47C61 7 4-52 15-159c12-113 37-213 32-340-2-59 2-121-2-178-2-44 35-62 81-61 104-31 222-52 345-64 68-7 103 34 111 94 2 12-3 22-9 31-33 14-62 15-103 16-100 2-196 10-270 40h-8c-18 23-11 79-15 106-1 13 5 22 16 25 82-10 176-25 264-12 44 7 78 26 71 72-7 49-76 30-125 30-78 0-138 22-210 29-24 1-35 28-36 52-2 41-10 83-8 126-19 84 122 51 181 35" id="r"/><path fill="#3a414a" d="M109-735c-25-57-110-11-99 37 30 130 91 291 122 410 18 69 44 132 72 190 44 90 75 116 148 73 102-105 149-290 208-441 32-82 48-168 48-261 0-51-15-77-46-77-38 0-59 34-73 100-35 160-89 312-149 454-40 95-58 66-91-37-28-90-54-179-79-263-24-79-42-141-61-185" id="s"/><path fill="#3a414a" d="M24-128c0-158-18-313-5-472 6-74-11-192 62-191 78 1 88 68 113 130 59 143 102 191 174 297 50 73 81 109 92 109 8 0 12-3 13-9 24-163 3-322-12-477-6-63 62-76 101-37 65 64 45 212 54 340 10 141 7 304-15 413-8 15-20 23-37 23-76 0-203-132-244-200-33-54-79-109-116-169l4 4c-9-20-41-55-54-51-14 102-5 244 6 344 3 30-15 69-41 68-9 0-28-1-56-3-44-28-39-45-39-119" id="t"/><g id="f"><use transform="matrix(0.017777777777777774,0,0,0.017777777777777774,0,0)" xlink:href="#r"/><use transform="matrix(0.017777777777777774,0,0,0.017777777777777774,11.839999999999998,0)" xlink:href="#s"/><use transform="matrix(0.017777777777777774,0,0,0.017777777777777774,22.77333333333333,0)" xlink:href="#l"/><use transform="matrix(0.017777777777777774,0,0,0.017777777777777774,34.61333333333333,0)" xlink:href="#t"/><use transform="matrix(0.017777777777777774,0,0,0.017777777777777774,46.00888888888888,0)" xlink:href="#m"/></g><path fill="#3a414a" d="M371-533c189 0 256 55 239 237-9 91-67 138-157 205C374-33 301-7 236-7 155-7 13-82 18-160c3-44 62-73 96-38 43 44 152 73 218 29 77-51 166-125 156-169 2-44-67-63-119-62-47 1-108 1-155 3C87-393 13-429 1-531c11-87 101-150 165-187 90-52 160-96 290-87 34 2 118 78 115 115-3 35-23 38-55 45-15 4-26-4-33-24-37-64-116-1-164 12-41 11-154 77-154 113 0 15 14 22 41 22 45 0 127-11 165-11" id="u"/><path fill="#3a414a" d="M608-642l-20 77c-36 56-69 94-113 138-49 48-58 40-29 81 33 46 69 89 97 147 44 89 52 141 40 147-3 38-20 49-63 52-68 5-97-106-129-160-40-68-56-162-144-164-53-1-27 78-45 121-7 56-12 123-28 170C157-4 113 24 66-1 46-11 40-39 49-87c19-111 19-139 19-313 0-144 1-187-40-242-27-37-13-94 26-108 103-36 250-59 389-41 63 8 182 85 165 149zm-140 11c-10-39-42-58-96-57-53 12-154 21-179 43-5 9-8 31-8 65 0 151 19 135 127 94 94-36 148-79 156-145" id="v"/><path fill="#3a414a" d="M103-24C79 10-2-14 8-59c42-186 129-353 193-524 23-62 63-135 99-197 39-38 106-10 109 47 27 100 51 209 81 307 8 25 72 24 72 63 0 44-26 46-37 75 12 83 46 156 55 243 7 63-106 47-114 11-13-58-36-170-57-231-3-4-7-8-9-14-69 4-134 40-198 52-53 21-53 108-81 160-4 16-8 29-18 43zm215-551c-16 18-92 195-73 208 46 2 100-12 123-31-5-30-32-162-38-171-2-3-6-5-12-6" id="w"/><g id="g"><use transform="matrix(0.017777777777777774,0,0,0.017777777777777774,0,0)" xlink:href="#u"/><use transform="matrix(0.017777777777777774,0,0,0.017777777777777774,11.217777777777776,0)" xlink:href="#m"/><use transform="matrix(0.017777777777777774,0,0,0.017777777777777774,23.999999999999996,0)" xlink:href="#v"/><use transform="matrix(0.017777777777777774,0,0,0.017777777777777774,34.986666666666665,0)" xlink:href="#l"/><use transform="matrix(0.017777777777777774,0,0,0.017777777777777774,46.82666666666666,0)" xlink:href="#w"/><use transform="matrix(0.017777777777777774,0,0,0.017777777777777774,57.26222222222221,0)" xlink:href="#k"/></g><path fill="#3a414a" d="M722-498c18-70 6-160 6-241 0-38 16-57 49-57 55 0 82 64 82 193 1 204-63 347-126 491-54 125-124 110-196 9-30-42-54-91-82-146-27-53-43-79-49-79-8-17-88 136-114 182C269-106 193 9 170-1 96-15 86-47 66-129 33-267 17-480 18-657c0-70 18-105 54-105 39 0 66 36 68 87 4 137-4 277 12 406 12 100 67-12 84-47 47-96 102-197 139-285 18-41 78-38 96-4 52 97 51 251 110 344 50 78 71 31 104-70 17-53 22-108 37-167" id="x"/><path fill="#3a414a" d="M19-91c0-222 71-428 58-668-3-62 121-44 170-33 118 27 229 50 293 128 44 53 63 97 63 217 0 165-189 328-383 400-36 13-62 45-108 45-66 0-93-23-93-89zm185-582c-30 151-43 322-58 489 5 39 27 28 60 14 129-54 276-147 276-304 0-155-106-203-278-199" id="y"/><path fill="#3a414a" d="M44-443c79-191 208-366 448-366 141 0 239 118 267 253 46 222-61 413-213 490-83 42-221 78-338 30-55-23-106-43-129-82-26-14-80-140-57-202 2-41 8-89 22-123zm103 115c1 136 75 191 208 191 130 0 180-50 241-135 38-53 55-111 55-169 0-109-73-236-179-227-143 12-260 151-311 271-9 24-14 47-14 69" id="z"/><path fill="#3a414a" d="M722-498c18-70 6-160 6-241 0-38 16-57 49-57 55 0 82 64 82 193 1 204-63 347-126 491-54 125-124 110-196 9-30-42-54-91-82-146-27-53-43-79-49-79-8-17-88 136-114 182C269-106 193 9 170-1 96-15 86-47 66-129 33-267 17-480 18-657c0-70 18-105 54-105 39 0 66 36 68 87 4 137-4 277 12 406 12 100 67-12 84-47 47-96 102-197 139-285 18-41 78-38 96-4 52 97 51 251 110 344 50 78 71 31 104-70 17-53 22-108 37-167" id="A"/><g id="h"><use transform="matrix(0.017777777777777774,0,0,0.017777777777777774,0,0)" xlink:href="#x"/><use transform="matrix(0.017777777777777774,0,0,0.017777777777777774,15.431111111111107,0)" xlink:href="#j"/><use transform="matrix(0.017777777777777774,0,0,0.017777777777777774,26.71999999999999,0)" xlink:href="#t"/><use transform="matrix(0.017777777777777774,0,0,0.017777777777777774,38.115555555555545,0)" xlink:href="#y"/><use transform="matrix(0.017777777777777774,0,0,0.017777777777777774,48.853333333333325,0)" xlink:href="#z"/><use transform="matrix(0.017777777777777774,0,0,0.017777777777777774,63.12888888888889,0)" xlink:href="#A"/></g></defs></g></svg>