<svg id="图层_1" data-name="图层 1" xmlns="http://www.w3.org/2000/svg" viewBox="0 0 100.93 74.66"><defs><style>.cls-1{fill:#188fff;}</style></defs><title>pulsar functions</title><path class="cls-1" d="M98.93,25.3H75.23C68.73,13,62,3.5,52.73,3.5c-12,0-17.7,10.5-23.1,20.7l-.5.9H1.83v6.1h15.9c5.6,0,6.8,1.9,6.8,1.9-4.4,6.8-9.7,13.6-18.5,13.6H1.93v6.4h4.2c17.1,0,24.6-13.9,30.6-25,5.5-10.3,9.3-16.5,16.1-16.5,7.1,0,14.5,15.4,21,28.9,1,2,1.9,4,2.9,6-25.1.8-37,6.7-46.7,11.5-7.1,3.5-12.7,7.8-22,7.8H1.93v6.4H8c11.1,0,18.1-3.4,25.4-7.1,10.2-5,21.8-10.7,49.1-10.7h15.8V48h-8.9a4.8,4.8,0,0,1-3.9-1.6c-1.6-3-3.1-6.2-4.6-9.4l-2.1-4.2s1.5-1.6,5.6-1.6h14.5V25.3Z"/></svg>