<svg id="图层_1" data-name="图层 1" xmlns="http://www.w3.org/2000/svg" xmlns:xlink="http://www.w3.org/1999/xlink" viewBox="0 0 74.1 75.56"><defs><style>.cls-1{fill:url(#未命名的渐变);}.cls-2{fill:url(#未命名的渐变_2);}.cls-3{fill:url(#未命名的渐变_3);}</style><linearGradient id="未命名的渐变" x1="0.89" y1="-131.58" x2="73.27" y2="-131.58" gradientTransform="matrix(1, 0, 0, -1, 0, -93.85)" gradientUnits="userSpaceOnUse"><stop offset="0" stop-color="#02d0f7"/><stop offset="1" stop-color="#0d65fb"/></linearGradient><linearGradient id="未命名的渐变_2" x1="45.63" y1="-136.28" x2="58.05" y2="-136.28" xlink:href="#未命名的渐变"/><linearGradient id="未命名的渐变_3" x1="15.95" y1="-127.08" x2="28.37" y2="-127.08" xlink:href="#未命名的渐变"/></defs><title>pulsar functions</title><path class="cls-1" d="M70.43,29.63l-14.9-6s-3.4-1.7-8.2.5l-14.9,6.2a10.46,10.46,0,1,1-2.7-5v-.1l13-5.6-2.6-1.5A4.31,4.31,0,0,0,36,18l-7.3,3-1.4-3.3,8.1-3.5a5.2,5.2,0,0,1,5,.2c1.6.9,4.1,2.4,6,3.5l.3-.1s5.8-2.9,10.2-.6c.8.3,1.5.8,3.1,1.5L46.63,5.33a13.46,13.46,0,0,0-19.1,0L4.83,28a13.65,13.65,0,0,0-1.5,17.4l14.9,6s3.4,1.7,8.2-.5l14.9-6.2a10.46,10.46,0,1,1,2.7,5v.1l-13.2,5.7,3.9,2.2a4.31,4.31,0,0,0,4.1.1l7.3-3,1.4,3.3-8.1,3.5a5.2,5.2,0,0,1-5-.2c-2-1.1-5.4-3.1-7.3-4.2H27s-5.8,2.9-10.2.6c-1.3-.6-2.4-1.2-3.6-1.9l14.2,14.2a13.46,13.46,0,0,0,19.1,0l22.7-22.7A13.36,13.36,0,0,0,70.43,29.63Z"/><circle class="cls-2" cx="51.83" cy="42.43" r="6.2"/><circle class="cls-3" cx="22.13" cy="33.23" r="6.2"/></svg>