<svg id="图层_1" data-name="图层 1" xmlns="http://www.w3.org/2000/svg" xmlns:xlink="http://www.w3.org/1999/xlink" viewBox="0 0 1225.97 271.08"><defs><style>.cls-1{fill:none;}.cls-2{clip-path:url(#clip-path);}.cls-3{fill:#02d0f7;}.cls-4{fill:#02cff7;}.cls-5{fill:#02cef7;}.cls-6{fill:#02cdf7;}.cls-7{fill:#02ccf7;}.cls-8{fill:#03cbf7;}.cls-9{fill:#03caf7;}.cls-10{fill:#03c9f7;}.cls-11{fill:#03c8f7;}.cls-12{fill:#03c7f7;}.cls-13{fill:#03c6f7;}.cls-14{fill:#03c5f7;}.cls-15{fill:#03c4f7;}.cls-16{fill:#03c3f7;}.cls-17{fill:#03c2f8;}.cls-18{fill:#04c1f8;}.cls-19{fill:#04c0f8;}.cls-20{fill:#04bff8;}.cls-21{fill:#04bef8;}.cls-22{fill:#04bdf8;}.cls-23{fill:#04bcf8;}.cls-24{fill:#04bbf8;}.cls-25{fill:#04baf8;}.cls-26{fill:#04b9f8;}.cls-27{fill:#04b8f8;}.cls-28{fill:#05b7f8;}.cls-29{fill:#05b6f8;}.cls-30{fill:#05b5f8;}.cls-31{fill:#05b4f8;}.cls-32{fill:#05b3f8;}.cls-33{fill:#05b2f8;}.cls-34{fill:#05b1f8;}.cls-35{fill:#05b0f8;}.cls-36{fill:#05aff8;}.cls-37{fill:#06aef8;}.cls-38{fill:#06adf8;}.cls-39{fill:#06acf8;}.cls-40{fill:#06abf8;}.cls-41{fill:#06aaf8;}.cls-42{fill:#06a9f8;}.cls-43{fill:#06a8f9;}.cls-44{fill:#06a7f9;}.cls-45{fill:#06a6f9;}.cls-46{fill:#06a5f9;}.cls-47{fill:#07a4f9;}.cls-48{fill:#07a3f9;}.cls-49{fill:#07a2f9;}.cls-50{fill:#07a1f9;}.cls-51{fill:#07a0f9;}.cls-52{fill:#079ff9;}.cls-53{fill:#079ef9;}.cls-54{fill:#079df9;}.cls-55{fill:#079cf9;}.cls-56{fill:#089bf9;}.cls-57{fill:#0899f9;}.cls-58{fill:#0898f9;}.cls-59{fill:#0897f9;}.cls-60{fill:#0896f9;}.cls-61{fill:#0895f9;}.cls-62{fill:#0894f9;}.cls-63{fill:#0893f9;}.cls-64{fill:#0892f9;}.cls-65{fill:#0891f9;}.cls-66{fill:#0990f9;}.cls-67{fill:#098ff9;}.cls-68{fill:#098ef9;}.cls-69{fill:#098df9;}.cls-70{fill:#098cfa;}.cls-71{fill:#098bfa;}.cls-72{fill:#098afa;}.cls-73{fill:#0989fa;}.cls-74{fill:#0988fa;}.cls-75{fill:#0987fa;}.cls-76{fill:#0a86fa;}.cls-77{fill:#0a85fa;}.cls-78{fill:#0a84fa;}.cls-79{fill:#0a83fa;}.cls-80{fill:#0a82fa;}.cls-81{fill:#0a81fa;}.cls-82{fill:#0a80fa;}.cls-83{fill:#0a7ffa;}.cls-84{fill:#0a7efa;}.cls-85{fill:#0b7dfa;}.cls-86{fill:#0b7cfa;}.cls-87{fill:#0b7bfa;}.cls-88{fill:#0b7afa;}.cls-89{fill:#0b79fa;}.cls-90{fill:#0b78fa;}.cls-91{fill:#0b77fa;}.cls-92{fill:#0b76fa;}.cls-93{fill:#0b75fa;}.cls-94{fill:#0b74fa;}.cls-95{fill:#0c73fa;}.cls-96{fill:#0c72fb;}.cls-97{fill:#0c71fb;}.cls-98{fill:#0c70fb;}.cls-99{fill:#0c6ffb;}.cls-100{fill:#0c6efb;}.cls-101{fill:#0c6dfb;}.cls-102{fill:#0c6cfb;}.cls-103{fill:#0c6bfb;}.cls-104{fill:#0c6afb;}.cls-105{fill:#0d69fb;}.cls-106{fill:#0d68fb;}.cls-107{fill:#0d67fb;}.cls-108{fill:#0d66fb;}.cls-109{fill:#0d65fb;}.cls-110{clip-path:url(#clip-path-2);}.cls-111{clip-path:url(#clip-path-3);}</style><clipPath id="clip-path"><path class="cls-1" d="M258.06,105.78,205.41,84.67s-12.11-5.88-29.1,1.89l-52.82,22a37.42,37.42,0,1,1-9.7-17.36l-.09-.2,46.15-19.74L150.62,66a15.25,15.25,0,0,0-14.34-.5L110.4,76.2l-4.94-11.55L134,52.44s9.64-5.1,17.81.86c5.65,3.24,14.57,8.38,21.37,12.3l1-.42s20.61-10.36,36.12-2c2.82,1.12,5.28,2.72,11,5.24L174,21.13a47.77,47.77,0,0,0-67.56,0L26.27,101.26a47.78,47.78,0,0,0-5.14,61.49L74,183.93s12.11,5.89,29.1-1.89l52.83-22a37.4,37.4,0,1,1,9.69,17.36l.09.2-46.85,20,13.62,7.84a15.21,15.21,0,0,0,14.33.51l25.88-10.71,4.94,11.54L149,219s-9.64,5.09-17.81-.87c-7-4-18.95-10.9-25.75-14.82l-.3.12s-20.61,10.36-36.11,2c-4.63-2.24-8.33-4.25-12.88-6.55L106.4,249A47.77,47.77,0,0,0,174,249l80.13-80.13A47.76,47.76,0,0,0,258.06,105.78Z"/></clipPath><clipPath id="clip-path-2"><circle class="cls-1" cx="192.23" cy="151.08" r="21.96" transform="translate(-45.75 207.16) rotate(-51.43)"/></clipPath><clipPath id="clip-path-3"><circle class="cls-1" cx="87.26" cy="118.56" r="21.96" transform="translate(-7.74 6.11) rotate(-3.84)"/></clipPath></defs><title>Function Mesh logo</title><g class="cls-2"><rect class="cls-3" x="7.81" y="2.47" width="4.46" height="265.14"/><rect class="cls-3" x="12.28" y="2.47" width="2.39" height="265.14"/><rect class="cls-4" x="14.67" y="2.47" width="2.39" height="265.14"/><rect class="cls-5" x="17.06" y="2.47" width="2.39" height="265.14"/><rect class="cls-6" x="19.45" y="2.47" width="2.39" height="265.14"/><rect class="cls-7" x="21.84" y="2.47" width="2.39" height="265.14"/><rect class="cls-8" x="24.23" y="2.47" width="2.39" height="265.14"/><rect class="cls-9" x="26.62" y="2.47" width="2.39" height="265.14"/><rect class="cls-10" x="29.01" y="2.47" width="2.39" height="265.14"/><rect class="cls-11" x="31.4" y="2.47" width="2.39" height="265.14"/><rect class="cls-12" x="33.79" y="2.47" width="2.39" height="265.14"/><rect class="cls-13" x="36.18" y="2.47" width="2.39" height="265.14"/><rect class="cls-14" x="38.58" y="2.47" width="2.39" height="265.14"/><rect class="cls-15" x="40.97" y="2.47" width="2.39" height="265.14"/><rect class="cls-16" x="43.36" y="2.47" width="2.39" height="265.14"/><rect class="cls-17" x="45.75" y="2.47" width="2.39" height="265.14"/><rect class="cls-18" x="48.14" y="2.47" width="2.39" height="265.14"/><rect class="cls-19" x="50.53" y="2.47" width="2.39" height="265.14"/><rect class="cls-20" x="52.92" y="2.47" width="2.39" height="265.14"/><rect class="cls-21" x="55.31" y="2.47" width="2.39" height="265.14"/><rect class="cls-22" x="57.7" y="2.47" width="2.39" height="265.14"/><rect class="cls-23" x="60.09" y="2.47" width="2.39" height="265.14"/><rect class="cls-24" x="62.48" y="2.47" width="2.39" height="265.14"/><rect class="cls-25" x="64.87" y="2.47" width="2.39" height="265.14"/><rect class="cls-26" x="67.26" y="2.47" width="2.39" height="265.14"/><rect class="cls-27" x="69.65" y="2.47" width="2.39" height="265.14"/><rect class="cls-28" x="72.04" y="2.47" width="2.39" height="265.14"/><rect class="cls-29" x="74.44" y="2.47" width="2.39" height="265.14"/><rect class="cls-30" x="76.83" y="2.47" width="2.39" height="265.14"/><rect class="cls-31" x="79.22" y="2.47" width="2.39" height="265.14"/><rect class="cls-32" x="81.61" y="2.47" width="2.39" height="265.14"/><rect class="cls-33" x="84" y="2.47" width="2.39" height="265.14"/><rect class="cls-34" x="86.39" y="2.47" width="2.39" height="265.14"/><rect class="cls-35" x="88.78" y="2.47" width="2.39" height="265.14"/><rect class="cls-36" x="91.17" y="2.47" width="2.39" height="265.14"/><rect class="cls-37" x="93.56" y="2.47" width="2.39" height="265.14"/><rect class="cls-38" x="95.95" y="2.47" width="2.39" height="265.14"/><rect class="cls-39" x="98.34" y="2.47" width="2.39" height="265.14"/><rect class="cls-40" x="100.73" y="2.47" width="2.39" height="265.14"/><rect class="cls-41" x="103.12" y="2.47" width="2.39" height="265.14"/><rect class="cls-42" x="105.51" y="2.47" width="2.39" height="265.14"/><rect class="cls-43" x="107.9" y="2.47" width="2.39" height="265.14"/><rect class="cls-44" x="110.3" y="2.47" width="2.39" height="265.14"/><rect class="cls-45" x="112.69" y="2.47" width="2.39" height="265.14"/><rect class="cls-46" x="115.08" y="2.47" width="2.39" height="265.14"/><rect class="cls-47" x="117.47" y="2.47" width="2.39" height="265.14"/><rect class="cls-48" x="119.86" y="2.47" width="2.39" height="265.14"/><rect class="cls-49" x="122.25" y="2.47" width="2.39" height="265.14"/><rect class="cls-50" x="124.64" y="2.47" width="2.39" height="265.14"/><rect class="cls-51" x="127.03" y="2.47" width="2.39" height="265.14"/><rect class="cls-52" x="129.42" y="2.47" width="2.39" height="265.14"/><rect class="cls-53" x="131.81" y="2.47" width="2.39" height="265.14"/><rect class="cls-54" x="134.2" y="2.47" width="2.39" height="265.14"/><rect class="cls-55" x="136.59" y="2.47" width="2.39" height="265.14"/><rect class="cls-56" x="138.98" y="2.47" width="2.39" height="265.14"/><rect class="cls-57" x="141.37" y="2.47" width="2.39" height="265.14"/><rect class="cls-58" x="143.76" y="2.47" width="2.39" height="265.14"/><rect class="cls-59" x="146.16" y="2.47" width="2.39" height="265.14"/><rect class="cls-60" x="148.55" y="2.47" width="2.39" height="265.14"/><rect class="cls-61" x="150.94" y="2.47" width="2.39" height="265.14"/><rect class="cls-62" x="153.33" y="2.47" width="2.39" height="265.14"/><rect class="cls-63" x="155.72" y="2.47" width="2.39" height="265.14"/><rect class="cls-64" x="158.11" y="2.47" width="2.39" height="265.14"/><rect class="cls-65" x="160.5" y="2.47" width="2.39" height="265.14"/><rect class="cls-66" x="162.89" y="2.47" width="2.39" height="265.14"/><rect class="cls-67" x="165.28" y="2.47" width="2.39" height="265.14"/><rect class="cls-68" x="167.67" y="2.47" width="2.39" height="265.14"/><rect class="cls-69" x="170.06" y="2.47" width="2.39" height="265.14"/><rect class="cls-70" x="172.45" y="2.47" width="2.39" height="265.14"/><rect class="cls-71" x="174.84" y="2.47" width="2.39" height="265.14"/><rect class="cls-72" x="177.23" y="2.47" width="2.39" height="265.14"/><rect class="cls-73" x="179.62" y="2.47" width="2.39" height="265.14"/><rect class="cls-74" x="182.02" y="2.47" width="2.39" height="265.14"/><rect class="cls-75" x="184.41" y="2.47" width="2.39" height="265.14"/><rect class="cls-76" x="186.8" y="2.47" width="2.39" height="265.14"/><rect class="cls-77" x="189.19" y="2.47" width="2.39" height="265.14"/><rect class="cls-78" x="191.58" y="2.47" width="2.39" height="265.14"/><rect class="cls-79" x="193.97" y="2.47" width="2.39" height="265.14"/><rect class="cls-80" x="196.36" y="2.47" width="2.39" height="265.14"/><rect class="cls-81" x="198.75" y="2.47" width="2.39" height="265.14"/><rect class="cls-82" x="201.14" y="2.47" width="2.39" height="265.14"/><rect class="cls-83" x="203.53" y="2.47" width="2.39" height="265.14"/><rect class="cls-84" x="205.92" y="2.47" width="2.39" height="265.14"/><rect class="cls-85" x="208.31" y="2.47" width="2.39" height="265.14"/><rect class="cls-86" x="210.7" y="2.47" width="2.39" height="265.14"/><rect class="cls-87" x="213.09" y="2.47" width="2.39" height="265.14"/><rect class="cls-88" x="215.48" y="2.47" width="2.39" height="265.14"/><rect class="cls-89" x="217.88" y="2.47" width="2.39" height="265.14"/><rect class="cls-90" x="220.27" y="2.47" width="2.39" height="265.14"/><rect class="cls-91" x="222.66" y="2.47" width="2.39" height="265.14"/><rect class="cls-92" x="225.05" y="2.47" width="2.39" height="265.14"/><rect class="cls-93" x="227.44" y="2.47" width="2.39" height="265.14"/><rect class="cls-94" x="229.83" y="2.47" width="2.39" height="265.14"/><rect class="cls-95" x="232.22" y="2.47" width="2.39" height="265.14"/><rect class="cls-96" x="234.61" y="2.47" width="2.39" height="265.14"/><rect class="cls-97" x="237" y="2.47" width="2.39" height="265.14"/><rect class="cls-98" x="239.39" y="2.47" width="2.39" height="265.14"/><rect class="cls-99" x="241.78" y="2.47" width="2.39" height="265.14"/><rect class="cls-100" x="244.17" y="2.47" width="2.39" height="265.14"/><rect class="cls-101" x="246.56" y="2.47" width="2.39" height="265.14"/><rect class="cls-102" x="248.95" y="2.47" width="2.39" height="265.14"/><rect class="cls-103" x="251.34" y="2.47" width="2.39" height="265.14"/><rect class="cls-104" x="253.74" y="2.47" width="2.39" height="265.14"/><rect class="cls-105" x="256.13" y="2.47" width="2.39" height="265.14"/><rect class="cls-106" x="258.52" y="2.47" width="2.39" height="265.14"/><rect class="cls-107" x="260.91" y="2.47" width="2.39" height="265.14"/><rect class="cls-108" x="263.3" y="2.47" width="2.39" height="265.14"/><rect class="cls-109" x="265.69" y="2.47" width="2.39" height="265.14"/><rect class="cls-109" x="268.08" y="2.47" width="4.55" height="265.14"/></g><g class="cls-110"><rect class="cls-3" x="167.27" y="126.12" width="2.99" height="49.93"/><rect class="cls-3" x="170.26" y="126.12" width="0.41" height="49.93"/><rect class="cls-4" x="170.67" y="126.12" width="0.41" height="49.93"/><rect class="cls-5" x="171.08" y="126.12" width="0.41" height="49.93"/><rect class="cls-6" x="171.49" y="126.12" width="0.41" height="49.93"/><rect class="cls-7" x="171.9" y="126.12" width="0.41" height="49.93"/><rect class="cls-8" x="172.31" y="126.12" width="0.41" height="49.93"/><rect class="cls-9" x="172.73" y="126.12" width="0.41" height="49.93"/><rect class="cls-10" x="173.14" y="126.12" width="0.41" height="49.93"/><rect class="cls-11" x="173.55" y="126.12" width="0.41" height="49.93"/><rect class="cls-12" x="173.96" y="126.12" width="0.41" height="49.93"/><rect class="cls-13" x="174.37" y="126.12" width="0.41" height="49.93"/><rect class="cls-14" x="174.78" y="126.12" width="0.41" height="49.93"/><rect class="cls-15" x="175.19" y="126.12" width="0.41" height="49.93"/><rect class="cls-16" x="175.6" y="126.12" width="0.41" height="49.93"/><rect class="cls-17" x="176.01" y="126.12" width="0.41" height="49.93"/><rect class="cls-18" x="176.42" y="126.12" width="0.41" height="49.93"/><rect class="cls-19" x="176.83" y="126.12" width="0.41" height="49.93"/><rect class="cls-20" x="177.24" y="126.12" width="0.41" height="49.93"/><rect class="cls-21" x="177.65" y="126.12" width="0.41" height="49.93"/><rect class="cls-22" x="178.06" y="126.12" width="0.41" height="49.93"/><rect class="cls-23" x="178.47" y="126.12" width="0.41" height="49.93"/><rect class="cls-24" x="178.88" y="126.12" width="0.41" height="49.93"/><rect class="cls-25" x="179.3" y="126.12" width="0.41" height="49.93"/><rect class="cls-26" x="179.71" y="126.12" width="0.41" height="49.93"/><rect class="cls-27" x="180.12" y="126.12" width="0.41" height="49.93"/><rect class="cls-28" x="180.53" y="126.12" width="0.41" height="49.93"/><rect class="cls-29" x="180.94" y="126.12" width="0.41" height="49.93"/><rect class="cls-30" x="181.35" y="126.12" width="0.41" height="49.93"/><rect class="cls-31" x="181.76" y="126.12" width="0.41" height="49.93"/><rect class="cls-32" x="182.17" y="126.12" width="0.41" height="49.93"/><rect class="cls-33" x="182.58" y="126.12" width="0.41" height="49.93"/><rect class="cls-34" x="182.99" y="126.12" width="0.41" height="49.93"/><rect class="cls-35" x="183.4" y="126.12" width="0.41" height="49.93"/><rect class="cls-36" x="183.81" y="126.12" width="0.41" height="49.93"/><rect class="cls-37" x="184.22" y="126.12" width="0.41" height="49.93"/><rect class="cls-38" x="184.63" y="126.12" width="0.41" height="49.93"/><rect class="cls-39" x="185.04" y="126.12" width="0.41" height="49.93"/><rect class="cls-40" x="185.45" y="126.12" width="0.41" height="49.93"/><rect class="cls-41" x="185.87" y="126.12" width="0.41" height="49.93"/><rect class="cls-42" x="186.28" y="126.12" width="0.41" height="49.93"/><rect class="cls-43" x="186.69" y="126.12" width="0.41" height="49.93"/><rect class="cls-44" x="187.1" y="126.12" width="0.41" height="49.93"/><rect class="cls-45" x="187.51" y="126.12" width="0.41" height="49.93"/><rect class="cls-46" x="187.92" y="126.12" width="0.41" height="49.93"/><rect class="cls-47" x="188.33" y="126.12" width="0.41" height="49.93"/><rect class="cls-48" x="188.74" y="126.12" width="0.41" height="49.93"/><rect class="cls-49" x="189.15" y="126.12" width="0.41" height="49.93"/><rect class="cls-50" x="189.56" y="126.12" width="0.41" height="49.93"/><rect class="cls-51" x="189.97" y="126.12" width="0.41" height="49.93"/><rect class="cls-52" x="190.38" y="126.12" width="0.41" height="49.93"/><rect class="cls-53" x="190.79" y="126.12" width="0.41" height="49.93"/><rect class="cls-54" x="191.2" y="126.12" width="0.41" height="49.93"/><rect class="cls-55" x="191.61" y="126.12" width="0.41" height="49.93"/><rect class="cls-56" x="192.02" y="126.12" width="0.41" height="49.93"/><rect class="cls-57" x="192.44" y="126.12" width="0.41" height="49.93"/><rect class="cls-58" x="192.85" y="126.12" width="0.41" height="49.93"/><rect class="cls-59" x="193.26" y="126.12" width="0.41" height="49.93"/><rect class="cls-60" x="193.67" y="126.12" width="0.41" height="49.93"/><rect class="cls-61" x="194.08" y="126.12" width="0.41" height="49.93"/><rect class="cls-62" x="194.49" y="126.12" width="0.41" height="49.93"/><rect class="cls-63" x="194.9" y="126.12" width="0.41" height="49.93"/><rect class="cls-64" x="195.31" y="126.12" width="0.41" height="49.93"/><rect class="cls-65" x="195.72" y="126.12" width="0.41" height="49.93"/><rect class="cls-66" x="196.13" y="126.12" width="0.41" height="49.93"/><rect class="cls-67" x="196.54" y="126.12" width="0.41" height="49.93"/><rect class="cls-68" x="196.95" y="126.12" width="0.41" height="49.93"/><rect class="cls-69" x="197.36" y="126.12" width="0.41" height="49.93"/><rect class="cls-70" x="197.77" y="126.12" width="0.41" height="49.93"/><rect class="cls-71" x="198.18" y="126.12" width="0.41" height="49.93"/><rect class="cls-72" x="198.59" y="126.12" width="0.41" height="49.93"/><rect class="cls-73" x="199" y="126.12" width="0.41" height="49.93"/><rect class="cls-74" x="199.42" y="126.12" width="0.41" height="49.93"/><rect class="cls-75" x="199.83" y="126.12" width="0.41" height="49.93"/><rect class="cls-76" x="200.24" y="126.12" width="0.41" height="49.93"/><rect class="cls-77" x="200.65" y="126.12" width="0.41" height="49.93"/><rect class="cls-78" x="201.06" y="126.12" width="0.41" height="49.93"/><rect class="cls-79" x="201.47" y="126.12" width="0.41" height="49.93"/><rect class="cls-80" x="201.88" y="126.12" width="0.41" height="49.93"/><rect class="cls-81" x="202.29" y="126.12" width="0.41" height="49.93"/><rect class="cls-82" x="202.7" y="126.12" width="0.41" height="49.93"/><rect class="cls-83" x="203.11" y="126.12" width="0.41" height="49.93"/><rect class="cls-84" x="203.52" y="126.12" width="0.41" height="49.93"/><rect class="cls-85" x="203.93" y="126.12" width="0.41" height="49.93"/><rect class="cls-86" x="204.34" y="126.12" width="0.41" height="49.93"/><rect class="cls-87" x="204.75" y="126.12" width="0.41" height="49.93"/><rect class="cls-88" x="205.16" y="126.12" width="0.41" height="49.93"/><rect class="cls-89" x="205.57" y="126.12" width="0.41" height="49.93"/><rect class="cls-90" x="205.99" y="126.12" width="0.41" height="49.93"/><rect class="cls-91" x="206.4" y="126.12" width="0.41" height="49.93"/><rect class="cls-92" x="206.81" y="126.12" width="0.41" height="49.93"/><rect class="cls-93" x="207.22" y="126.12" width="0.41" height="49.93"/><rect class="cls-94" x="207.63" y="126.12" width="0.41" height="49.93"/><rect class="cls-95" x="208.04" y="126.12" width="0.41" height="49.93"/><rect class="cls-96" x="208.45" y="126.12" width="0.41" height="49.93"/><rect class="cls-97" x="208.86" y="126.12" width="0.41" height="49.93"/><rect class="cls-98" x="209.27" y="126.12" width="0.41" height="49.93"/><rect class="cls-99" x="209.68" y="126.12" width="0.41" height="49.93"/><rect class="cls-100" x="210.09" y="126.12" width="0.41" height="49.93"/><rect class="cls-101" x="210.5" y="126.12" width="0.41" height="49.93"/><rect class="cls-102" x="210.91" y="126.12" width="0.41" height="49.93"/><rect class="cls-103" x="211.32" y="126.12" width="0.41" height="49.93"/><rect class="cls-104" x="211.73" y="126.12" width="0.41" height="49.93"/><rect class="cls-105" x="212.14" y="126.12" width="0.41" height="49.93"/><rect class="cls-106" x="212.56" y="126.12" width="0.41" height="49.93"/><rect class="cls-107" x="212.97" y="126.12" width="0.41" height="49.93"/><rect class="cls-108" x="213.38" y="126.12" width="0.41" height="49.93"/><rect class="cls-109" x="213.79" y="126.12" width="0.41" height="49.93"/><rect class="cls-109" x="214.2" y="126.12" width="2.99" height="49.93"/></g><g class="cls-111"><rect class="cls-3" x="62.3" y="93.6" width="2.99" height="49.93"/><rect class="cls-3" x="65.29" y="93.6" width="0.41" height="49.93"/><rect class="cls-4" x="65.7" y="93.6" width="0.41" height="49.93"/><rect class="cls-5" x="66.11" y="93.6" width="0.41" height="49.93"/><rect class="cls-6" x="66.52" y="93.6" width="0.41" height="49.93"/><rect class="cls-7" x="66.93" y="93.6" width="0.41" height="49.93"/><rect class="cls-8" x="67.34" y="93.6" width="0.41" height="49.93"/><rect class="cls-9" x="67.75" y="93.6" width="0.41" height="49.93"/><rect class="cls-10" x="68.17" y="93.6" width="0.41" height="49.93"/><rect class="cls-11" x="68.58" y="93.6" width="0.41" height="49.93"/><rect class="cls-12" x="68.99" y="93.6" width="0.41" height="49.93"/><rect class="cls-13" x="69.4" y="93.6" width="0.41" height="49.93"/><rect class="cls-14" x="69.81" y="93.6" width="0.41" height="49.93"/><rect class="cls-15" x="70.22" y="93.6" width="0.41" height="49.93"/><rect class="cls-16" x="70.63" y="93.6" width="0.41" height="49.93"/><rect class="cls-17" x="71.04" y="93.6" width="0.41" height="49.93"/><rect class="cls-18" x="71.45" y="93.6" width="0.41" height="49.93"/><rect class="cls-19" x="71.86" y="93.6" width="0.41" height="49.93"/><rect class="cls-20" x="72.27" y="93.6" width="0.41" height="49.93"/><rect class="cls-21" x="72.68" y="93.6" width="0.41" height="49.93"/><rect class="cls-22" x="73.09" y="93.6" width="0.41" height="49.93"/><rect class="cls-23" x="73.5" y="93.6" width="0.41" height="49.93"/><rect class="cls-24" x="73.91" y="93.6" width="0.41" height="49.93"/><rect class="cls-25" x="74.32" y="93.6" width="0.41" height="49.93"/><rect class="cls-26" x="74.74" y="93.6" width="0.41" height="49.93"/><rect class="cls-27" x="75.15" y="93.6" width="0.41" height="49.93"/><rect class="cls-28" x="75.56" y="93.6" width="0.41" height="49.93"/><rect class="cls-29" x="75.97" y="93.6" width="0.41" height="49.93"/><rect class="cls-30" x="76.38" y="93.6" width="0.41" height="49.93"/><rect class="cls-31" x="76.79" y="93.6" width="0.41" height="49.93"/><rect class="cls-32" x="77.2" y="93.6" width="0.41" height="49.93"/><rect class="cls-33" x="77.61" y="93.6" width="0.41" height="49.93"/><rect class="cls-34" x="78.02" y="93.6" width="0.41" height="49.93"/><rect class="cls-35" x="78.43" y="93.6" width="0.41" height="49.93"/><rect class="cls-36" x="78.84" y="93.6" width="0.41" height="49.93"/><rect class="cls-37" x="79.25" y="93.6" width="0.41" height="49.93"/><rect class="cls-38" x="79.66" y="93.6" width="0.41" height="49.93"/><rect class="cls-39" x="80.07" y="93.6" width="0.41" height="49.93"/><rect class="cls-40" x="80.48" y="93.6" width="0.41" height="49.93"/><rect class="cls-41" x="80.89" y="93.6" width="0.41" height="49.93"/><rect class="cls-42" x="81.31" y="93.6" width="0.41" height="49.93"/><rect class="cls-43" x="81.72" y="93.6" width="0.41" height="49.93"/><rect class="cls-44" x="82.13" y="93.6" width="0.41" height="49.93"/><rect class="cls-45" x="82.54" y="93.6" width="0.41" height="49.93"/><rect class="cls-46" x="82.95" y="93.6" width="0.41" height="49.93"/><rect class="cls-47" x="83.36" y="93.6" width="0.41" height="49.93"/><rect class="cls-48" x="83.77" y="93.6" width="0.41" height="49.93"/><rect class="cls-49" x="84.18" y="93.6" width="0.41" height="49.93"/><rect class="cls-50" x="84.59" y="93.6" width="0.41" height="49.93"/><rect class="cls-51" x="85" y="93.6" width="0.41" height="49.93"/><rect class="cls-52" x="85.41" y="93.6" width="0.41" height="49.93"/><rect class="cls-53" x="85.82" y="93.6" width="0.41" height="49.93"/><rect class="cls-54" x="86.23" y="93.6" width="0.41" height="49.93"/><rect class="cls-55" x="86.64" y="93.6" width="0.41" height="49.93"/><rect class="cls-56" x="87.05" y="93.6" width="0.41" height="49.93"/><rect class="cls-57" x="87.46" y="93.6" width="0.41" height="49.93"/><rect class="cls-58" x="87.87" y="93.6" width="0.41" height="49.93"/><rect class="cls-59" x="88.29" y="93.6" width="0.41" height="49.93"/><rect class="cls-60" x="88.7" y="93.6" width="0.41" height="49.93"/><rect class="cls-61" x="89.11" y="93.6" width="0.41" height="49.93"/><rect class="cls-62" x="89.52" y="93.6" width="0.41" height="49.93"/><rect class="cls-63" x="89.93" y="93.6" width="0.41" height="49.93"/><rect class="cls-64" x="90.34" y="93.6" width="0.41" height="49.93"/><rect class="cls-65" x="90.75" y="93.6" width="0.41" height="49.93"/><rect class="cls-66" x="91.16" y="93.6" width="0.41" height="49.93"/><rect class="cls-67" x="91.57" y="93.6" width="0.41" height="49.93"/><rect class="cls-68" x="91.98" y="93.6" width="0.41" height="49.93"/><rect class="cls-69" x="92.39" y="93.6" width="0.41" height="49.93"/><rect class="cls-70" x="92.8" y="93.6" width="0.41" height="49.93"/><rect class="cls-71" x="93.21" y="93.6" width="0.41" height="49.93"/><rect class="cls-72" x="93.62" y="93.6" width="0.41" height="49.93"/><rect class="cls-73" x="94.03" y="93.6" width="0.41" height="49.93"/><rect class="cls-74" x="94.44" y="93.6" width="0.41" height="49.93"/><rect class="cls-75" x="94.86" y="93.6" width="0.41" height="49.93"/><rect class="cls-76" x="95.27" y="93.6" width="0.41" height="49.93"/><rect class="cls-77" x="95.68" y="93.6" width="0.41" height="49.93"/><rect class="cls-78" x="96.09" y="93.6" width="0.41" height="49.93"/><rect class="cls-79" x="96.5" y="93.6" width="0.41" height="49.93"/><rect class="cls-80" x="96.91" y="93.6" width="0.41" height="49.93"/><rect class="cls-81" x="97.32" y="93.6" width="0.41" height="49.93"/><rect class="cls-82" x="97.73" y="93.6" width="0.41" height="49.93"/><rect class="cls-83" x="98.14" y="93.6" width="0.41" height="49.93"/><rect class="cls-84" x="98.55" y="93.6" width="0.41" height="49.93"/><rect class="cls-85" x="98.96" y="93.6" width="0.41" height="49.93"/><rect class="cls-86" x="99.37" y="93.6" width="0.41" height="49.93"/><rect class="cls-87" x="99.78" y="93.6" width="0.41" height="49.93"/><rect class="cls-88" x="100.19" y="93.6" width="0.41" height="49.93"/><rect class="cls-89" x="100.6" y="93.6" width="0.41" height="49.93"/><rect class="cls-90" x="101.01" y="93.6" width="0.41" height="49.93"/><rect class="cls-91" x="101.43" y="93.6" width="0.41" height="49.93"/><rect class="cls-92" x="101.84" y="93.6" width="0.41" height="49.93"/><rect class="cls-93" x="102.25" y="93.6" width="0.41" height="49.93"/><rect class="cls-94" x="102.66" y="93.6" width="0.41" height="49.93"/><rect class="cls-95" x="103.07" y="93.6" width="0.41" height="49.93"/><rect class="cls-96" x="103.48" y="93.6" width="0.41" height="49.93"/><rect class="cls-97" x="103.89" y="93.6" width="0.41" height="49.93"/><rect class="cls-98" x="104.3" y="93.6" width="0.41" height="49.93"/><rect class="cls-99" x="104.71" y="93.6" width="0.41" height="49.93"/><rect class="cls-100" x="105.12" y="93.6" width="0.41" height="49.93"/><rect class="cls-101" x="105.53" y="93.6" width="0.41" height="49.93"/><rect class="cls-102" x="105.94" y="93.6" width="0.41" height="49.93"/><rect class="cls-103" x="106.35" y="93.6" width="0.41" height="49.93"/><rect class="cls-104" x="106.76" y="93.6" width="0.41" height="49.93"/><rect class="cls-105" x="107.17" y="93.6" width="0.41" height="49.93"/><rect class="cls-106" x="107.58" y="93.6" width="0.41" height="49.93"/><rect class="cls-107" x="108" y="93.6" width="0.41" height="49.93"/><rect class="cls-108" x="108.41" y="93.6" width="0.41" height="49.93"/><rect class="cls-109" x="108.82" y="93.6" width="0.41" height="49.93"/><rect class="cls-109" x="109.23" y="93.6" width="2.99" height="49.93"/></g><path d="M333.2,110.69V131.6h35.18v14H333.2v33.81H315.92V96.79h61.86v13.9Z"/><path d="M447,116.82v62.61H431.74l-.62-10.77q-6,12-21.91,12-10.15,0-16.09-5.44t-5.95-17V116.82h17.15v37.07q0,7.26,2.76,10.26c1.83,2,4.55,3,8.14,3A14.08,14.08,0,0,0,425.8,163q4.06-4.19,4.07-12.58V116.82Z"/><path d="M518.7,121.46q6.21,5.88,6.2,16.9v41.07H507.75V143.37q0-14.28-11.15-14.28a13.79,13.79,0,0,0-10.2,4.26q-4.2,4.26-4.2,13v33.06H465.05V116.82h15.4L481,128a21.71,21.71,0,0,1,8.64-9.27,25.36,25.36,0,0,1,12.77-3.13Q512.52,115.57,518.7,121.46Z"/><path d="M590.51,120.58A24.92,24.92,0,0,1,599.9,134l-16,5.76q-2.26-11.4-12.15-11.4-7.4,0-11.33,5.07t-3.95,14.84q0,9.76,4,14.71t11.15,4.95q11,0,13-11.14l15.52,5a22.5,22.5,0,0,1-9.32,13.78q-7.33,5.13-19,5.13-15.54,0-24.05-8.58t-8.51-24q0-15.4,8.45-24t23.48-8.58Q583.62,115.57,590.51,120.58Z"/><path d="M656.75,175.55a22.49,22.49,0,0,1-7.58,3.75,32.93,32.93,0,0,1-9.58,1.38q-20.91,0-20.91-18.91V129.59H607.29V116.82h11.39v-14.4l17.16-4.75v19.15h20.28v12.77H635.84V159q0,8.64,8.64,8.64a14.45,14.45,0,0,0,9.64-3.51Z"/><path d="M665.51,98.67q0-9.27,10.65-9.27t10.64,9.27q0,9.14-10.64,9.14T665.51,98.67Zm19.16,80.76H667.52V116.82h17.15Z"/><path d="M755.23,124.21q8.44,8.64,8.45,23.92T755.23,172q-8.46,8.64-23.61,8.64T708,172q-8.44-8.64-8.45-23.91T708,124.21q8.46-8.64,23.6-8.64T755.23,124.21Zm-34.69,9.08q-3.81,5-3.82,14.84T720.54,163q3.83,4.95,11.08,4.95T742.71,163q3.81-4.94,3.81-14.83t-3.81-14.84q-3.83-4.95-11.09-4.95T720.54,133.29Z"/><path d="M832.11,121.46q6.2,5.88,6.2,16.9v41.07H821.15V143.37q0-14.28-11.14-14.28a13.79,13.79,0,0,0-10.21,4.26q-4.2,4.26-4.19,13v33.06H778.45V116.82h15.4l.51,11.15A21.63,21.63,0,0,1,803,118.7a25.4,25.4,0,0,1,12.78-3.13Q825.91,115.57,832.11,121.46Z"/><path d="M985.93,179.43H970.4V136.36l.76-24.17h-.26L948,179.43H933.84l-22.79-67.24h-.25l.88,24.17v43.07H896V96.79h25L936,141.87l5.26,18.65h.25L946.86,142l14.78-45.2h24.29Z"/><path d="M1062.94,154.64h-44.33q2.63,13.28,15.65,13.27a17.78,17.78,0,0,0,8.89-2,10.72,10.72,0,0,0,4.89-5.76l14,5.13A22.16,22.16,0,0,1,1052,176.74q-7.08,3.94-17.72,3.94-15.53,0-24-8.58t-8.51-24q0-15.4,8.26-24t23.29-8.58q14.52,0,22.35,8.39t7.83,23.91A45,45,0,0,1,1062.94,154.64Zm-39.76-22.79q-3.69,3.63-4.69,10.77h29.17q-1-7-4.76-10.71a13.33,13.33,0,0,0-9.76-3.69Q1026.87,128.22,1023.18,131.85Z"/><path d="M1073.08,168.66l10-10.27a14.82,14.82,0,0,0,7.19,7.58,27.39,27.39,0,0,0,11.59,2.19q5.5,0,8.51-1.5t3-4.14q0-2.11-2.82-3.63t-9.7-2.88q-14.4-2.87-20.23-7.57a15.47,15.47,0,0,1-5.82-12.71,16.82,16.82,0,0,1,3.26-9.89,22.48,22.48,0,0,1,9.64-7.45,37.64,37.64,0,0,1,15.27-2.82q10.53,0,17,3.19a27.08,27.08,0,0,1,10.9,10.08l-10.65,9a18.68,18.68,0,0,0-6.82-7.39,20,20,0,0,0-10.21-2.38,16.61,16.61,0,0,0-8.2,1.75q-3.06,1.75-3.06,4.26c0,1.75,1,3.22,3,4.38s5.55,2.26,10.64,3.26q13.65,2.76,19.35,7.2t5.7,12.33q0,8.78-7.45,14.09t-21.1,5.32Q1081.22,180.68,1073.08,168.66Z"/><path d="M1198,121.46q6.19,5.88,6.2,16.9v41.07H1187V143.37q0-14.28-11.14-14.28a13.79,13.79,0,0,0-10.21,4.26q-4.2,4.26-4.19,13v33.06h-17.16v-90h17.16v38.07a19.72,19.72,0,0,1,8.07-9,24.16,24.16,0,0,1,12.09-2.94Q1191.78,115.57,1198,121.46Z"/></svg>