<svg id="图层_1" data-name="图层 1" xmlns="http://www.w3.org/2000/svg" xmlns:xlink="http://www.w3.org/1999/xlink" viewBox="0 0 1693.68 440.26"><defs><style>.cls-1{font-size:165.7px;fill:#333;font-family:WorkSans-SemiBold, Work Sans;font-weight:600;}.cls-2{letter-spacing:-0.03em;}.cls-3{letter-spacing:-0.01em;}.cls-4{fill:url(#未命名的渐变_5);}.cls-5{fill:#fff;}</style><linearGradient id="未命名的渐变_5" x1="49.53" y1="218.93" x2="394.16" y2="218.93" gradientTransform="translate(-89.83 220.99) rotate(-45)" gradientUnits="userSpaceOnUse"><stop offset="0" stop-color="#02d0f7"/><stop offset="1" stop-color="#0d65fb"/></linearGradient></defs><title>图标</title><text class="cls-1" transform="translate(454.02 259.61)"><tspan class="cls-2">F</tspan><tspan x="97.1" y="0">unction </tspan><tspan class="cls-3" x="767.66" y="0">M</tspan><tspan x="914.14" y="0">esh</tspan></text><rect class="cls-4" x="79.57" y="76.65" width="284.56" height="284.56" rx="69.76" transform="translate(219.79 -92.75) rotate(45)"/><path class="cls-5" d="M44,282.28,54.49,254.6l77.16,30.93s16.5,8,39.65-2.58l74.59-31.13,10.7,25-82.42,35.25s-28.08,14.11-49.2,2.67C98.34,304.15,44,282.28,44,282.28Z"/><path class="cls-5" d="M272.72,193.93a51,51,0,1,0,66.9,26.82A51,51,0,0,0,272.72,193.93Zm31.81,74.37A29.92,29.92,0,1,1,320.27,229,29.92,29.92,0,0,1,304.53,268.3Z"/><path class="cls-5" d="M398.41,153.56l-10.53,27.68-77.16-30.93s-16.5-8-39.65,2.58L196.48,184l-10.7-25,82.42-35.26s28.08-14.11,49.2-2.66C344,131.7,398.41,153.56,398.41,153.56Z"/><path class="cls-5" d="M169.65,241.91a51,51,0,1,0-66.9-26.81A51,51,0,0,0,169.65,241.91Zm-31.81-74.36a29.92,29.92,0,1,1-15.74,39.27A29.92,29.92,0,0,1,137.84,167.55Z"/><path class="cls-5" d="M279.77,131.79l-3.66,16.14-40-23.07a20.74,20.74,0,0,0-19.53-.68l-35.25,14.59L174.56,123l38.9-16.64s13.14-6.94,24.27,1.18C251.54,115.5,279.77,131.79,279.77,131.79Z"/><path class="cls-5" d="M167.61,307.9l3.66-16.14,40,23.07a20.76,20.76,0,0,0,19.53.69l35.25-14.6,6.73,15.73-38.91,16.64s-13.13,6.94-24.26-1.17C195.84,324.2,167.61,307.9,167.61,307.9Z"/></svg>