<svg id="图层_1" data-name="图层 1" xmlns="http://www.w3.org/2000/svg" xmlns:xlink="http://www.w3.org/1999/xlink" viewBox="0 0 575.59 527.44"><defs><style>.cls-1{fill:url(#未命名的渐变_5);}.cls-2{fill:#fff;}</style><linearGradient id="未命名的渐变_5" x1="43.12" y1="266.32" x2="498.43" y2="266.32" gradientTransform="translate(-109.01 269.47) rotate(-45)" gradientUnits="userSpaceOnUse"><stop offset="0" stop-color="#02d0f7"/><stop offset="1" stop-color="#0d65fb"/></linearGradient></defs><title>logo</title><rect class="cls-1" x="89.37" y="84.91" width="362.82" height="362.82" rx="69.76" transform="translate(267.63 -113.46) rotate(45)"/><path class="cls-2" d="M44,347.1l13.43-35.29,98.38,39.43s21,10.23,50.55-3.29l95.1-39.69,13.65,31.9L210,385.1s-35.81,18-62.74,3.4C113.29,375,44,347.1,44,347.1Z"/><path class="cls-2" d="M335.63,234.45a65,65,0,1,0,85.3,34.19A65,65,0,0,0,335.63,234.45Zm40.56,94.82a38.15,38.15,0,1,1,20.07-50.08A38.16,38.16,0,0,1,376.19,329.27Z"/><path class="cls-2" d="M495.9,183l-13.44,35.3-98.37-39.43s-21-10.23-50.56,3.28l-95.1,39.7-13.64-31.9L329.87,145s35.8-18,62.73-3.4C426.56,155.1,495.9,183,495.9,183Z"/><path class="cls-2" d="M204.22,295.63a65,65,0,1,0-85.3-34.19A65,65,0,0,0,204.22,295.63Zm-40.55-94.82a38.15,38.15,0,1,1-20.08,50.07A38.14,38.14,0,0,1,163.67,200.81Z"/><path class="cls-2" d="M344.63,155.22,340,175.79l-51.06-29.4a26.43,26.43,0,0,0-24.9-.88l-44.95,18.6-8.57-20.05,49.6-21.22s16.75-8.85,30.94,1.5C308.64,134.44,344.63,155.22,344.63,155.22Z"/><path class="cls-2" d="M201.62,379.76l4.67-20.57,51,29.41a26.47,26.47,0,0,0,24.91.87l44.94-18.6,8.58,20.05-49.6,21.22s-16.75,8.85-30.94-1.5C237.61,400.54,201.62,379.76,201.62,379.76Z"/></svg>