<svg id="图层_1" data-name="图层 1" xmlns="http://www.w3.org/2000/svg" viewBox="0 0 127.8 97.6"><defs><style>.cls-1{fill:#188fff;}.cls-2,.cls-3{fill:#464e56;}.cls-3{isolation:isolate;font-size:20.42px;font-family:WorkSans-Medium, Work Sans;font-weight:500;}.cls-4{letter-spacing:-0.03em;}</style></defs><title>pulsar functions</title><path class="cls-1" d="M90.5,18.6H77.4C73.9,11.8,70.1,6.5,65,6.5c-6.6,0-9.7,5.8-12.8,11.4l-.2.6H37v3.3h8.8c3.1,0,3.7,1,3.7,1-2.4,3.8-5.4,7.5-10.2,7.5H37v3.5h2.3c9.4,0,13.6-7.7,16.9-13.8,3-5.7,5.2-9.1,8.9-9.1,3.9,0,8,8.5,11.6,16,.5,1.1,1.1,2.2,1.6,3.3-13.8.4-20.4,3.7-25.8,6.3-3.9,1.9-7,4.3-12.1,4.3H37v3.5h3.4c6.1,0,10-1.9,14-3.9,5.6-2.8,12-5.9,27.1-5.9h8.7V31H85.3a2.74,2.74,0,0,1-2.2-.9c-.9-1.7-1.7-3.4-2.5-5.2l-1.1-2.3s.8-.9,3.1-.9h8V18.6Z"/><path class="cls-2" d="M21,53.5H14.3v2.4h6.5c2.7,0,4.2,1.2,4.2,3.4s-1.7,3.4-4.3,3.4H14.3V71H17V65h3.8c3.5,0,7-1.8,7-5.9C27.7,55.7,25.1,53.5,21,53.5ZM42.5,63.6c0,3.4-1.7,5.3-4.8,5.3s-4.9-2-4.9-5.4v-10H30.2V63.7c0,4.7,2.8,7.7,7.4,7.7S45,68.5,45,63.6v-10H42.4Zm9-10.1H49V71.1H61V68.7H51.5ZM70.3,61c-3.7-.8-4.4-1.6-4.4-3s1.3-2.4,3.3-2.4a6.92,6.92,0,0,1,4.7,1.8l.3.2,1.5-2-.2-.2a9.24,9.24,0,0,0-6.2-2.2c-3.4,0-5.9,2.1-5.9,5,0,3.2,2.4,4.4,5.9,5.2s4.2,1.6,4.2,3S72.1,69,70,69a7.4,7.4,0,0,1-5.6-2.3l-.2-.2-1.6,1.9.2.2a10.42,10.42,0,0,0,7.1,2.8c3.6,0,6.1-2.1,6.1-5.1S74.3,61.9,70.3,61Zm15.1-7.7L77.4,71H80l2-4.5h8.8l2,4.5h2.7l-8-17.7ZM83,64.2l3.4-7.6,3.4,7.6Zm24.8-.2a5.24,5.24,0,0,0,4.4-5.2,5.43,5.43,0,0,0-1.4-3.6,7.18,7.18,0,0,0-5-1.8H98.2V71h2.6V64.4h4.4l4.9,6.6h3.1Zm-7.2-1.9V55.9h4.9c2.6,0,4,1.1,4,3.1s-1.6,3.2-4,3.2Z"/><text class="cls-3" transform="translate(14.39 91.18)"><tspan class="cls-4">F</tspan><tspan x="11.78" y="0">unctions</tspan></text></svg>